<mxfile host="app.diagrams.net" modified="2021-04-04T15:46:04.311Z" agent="5.0 (Macintosh; Intel Mac OS X 10_11_6) AppleWebKit/537.36 (KHTML, like Gecko) Chrome/89.0.4389.114 Safari/537.36" etag="1ZX8YUNm_onYKsYS2Ota" version="14.5.7" type="github">
  <diagram id="ZcS7Jbe5ZXRPlum8FtQR" name="Page-1">
    <mxGraphModel dx="5300" dy="3756" grid="1" gridSize="10" guides="1" tooltips="1" connect="1" arrows="1" fold="1" page="1" pageScale="1" pageWidth="3300" pageHeight="4681" math="0" shadow="0">
      <root>
        <mxCell id="0" />
        <mxCell id="1" parent="0" />
        <mxCell id="G9mwLR_gxz6Jy6iitqx3-1" value="" style="rounded=0;whiteSpace=wrap;html=1;fillColor=#d5e8d4;allowArrows=0;connectable=0;editable=0;" vertex="1" parent="1">
          <mxGeometry x="1910" y="970" width="1280" height="1120" as="geometry" />
        </mxCell>
        <mxCell id="G9mwLR_gxz6Jy6iitqx3-2" value="Állapotváltás és grafikai kirajzolás, &#xa;Az elkészült objektumok elhelyezése." style="text;align=center;fontStyle=1;verticalAlign=middle;spacingLeft=3;spacingRight=3;rotatable=0;points=[[0,0.5],[1,0.5]];portConstraint=eastwest;fillColor=#ffffff;" vertex="1" parent="1">
          <mxGeometry x="1942" y="980" width="255" height="80" as="geometry" />
        </mxCell>
        <mxCell id="G9mwLR_gxz6Jy6iitqx3-3" value="" style="rounded=0;whiteSpace=wrap;html=1;fillColor=#cce5ff;strokeColor=#36393d;connectable=0;" vertex="1" parent="1">
          <mxGeometry x="680" y="970" width="1200" height="1200" as="geometry" />
        </mxCell>
        <mxCell id="G9mwLR_gxz6Jy6iitqx3-4" value="Network" style="swimlane;fontStyle=2;align=center;verticalAlign=top;childLayout=stackLayout;horizontal=1;startSize=26;horizontalStack=0;resizeParent=1;resizeLast=0;collapsible=1;marginBottom=0;rounded=0;shadow=0;strokeWidth=1;" vertex="1" parent="1">
          <mxGeometry x="60" y="264" width="160" height="218" as="geometry">
            <mxRectangle x="230" y="140" width="160" height="26" as="alternateBounds" />
          </mxGeometry>
        </mxCell>
        <mxCell id="G9mwLR_gxz6Jy6iitqx3-5" value="server: String" style="text;align=left;verticalAlign=top;spacingLeft=4;spacingRight=4;overflow=hidden;rotatable=0;points=[[0,0.5],[1,0.5]];portConstraint=eastwest;" vertex="1" parent="G9mwLR_gxz6Jy6iitqx3-4">
          <mxGeometry y="26" width="160" height="26" as="geometry" />
        </mxCell>
        <mxCell id="G9mwLR_gxz6Jy6iitqx3-6" value="client: String" style="text;align=left;verticalAlign=top;spacingLeft=4;spacingRight=4;overflow=hidden;rotatable=0;points=[[0,0.5],[1,0.5]];portConstraint=eastwest;rounded=0;shadow=0;html=0;" vertex="1" parent="G9mwLR_gxz6Jy6iitqx3-4">
          <mxGeometry y="52" width="160" height="26" as="geometry" />
        </mxCell>
        <mxCell id="G9mwLR_gxz6Jy6iitqx3-7" value="password: String" style="text;align=left;verticalAlign=top;spacingLeft=4;spacingRight=4;overflow=hidden;rotatable=0;points=[[0,0.5],[1,0.5]];portConstraint=eastwest;rounded=0;shadow=0;html=0;" vertex="1" parent="G9mwLR_gxz6Jy6iitqx3-4">
          <mxGeometry y="78" width="160" height="26" as="geometry" />
        </mxCell>
        <mxCell id="G9mwLR_gxz6Jy6iitqx3-8" value="" style="line;html=1;strokeWidth=1;align=left;verticalAlign=middle;spacingTop=-1;spacingLeft=3;spacingRight=3;rotatable=0;labelPosition=right;points=[];portConstraint=eastwest;" vertex="1" parent="G9mwLR_gxz6Jy6iitqx3-4">
          <mxGeometry y="104" width="160" height="8" as="geometry" />
        </mxCell>
        <mxCell id="G9mwLR_gxz6Jy6iitqx3-9" value="create(): void" style="text;align=left;verticalAlign=top;spacingLeft=4;spacingRight=4;overflow=hidden;rotatable=0;points=[[0,0.5],[1,0.5]];portConstraint=eastwest;" vertex="1" parent="G9mwLR_gxz6Jy6iitqx3-4">
          <mxGeometry y="112" width="160" height="26" as="geometry" />
        </mxCell>
        <mxCell id="G9mwLR_gxz6Jy6iitqx3-10" value="remove(): void" style="text;align=left;verticalAlign=top;spacingLeft=4;spacingRight=4;overflow=hidden;rotatable=0;points=[[0,0.5],[1,0.5]];portConstraint=eastwest;" vertex="1" parent="G9mwLR_gxz6Jy6iitqx3-4">
          <mxGeometry y="138" width="160" height="26" as="geometry" />
        </mxCell>
        <mxCell id="G9mwLR_gxz6Jy6iitqx3-11" value="connect(): void" style="text;align=left;verticalAlign=top;spacingLeft=4;spacingRight=4;overflow=hidden;rotatable=0;points=[[0,0.5],[1,0.5]];portConstraint=eastwest;" vertex="1" parent="G9mwLR_gxz6Jy6iitqx3-4">
          <mxGeometry y="164" width="160" height="28" as="geometry" />
        </mxCell>
        <mxCell id="G9mwLR_gxz6Jy6iitqx3-12" value="disconnect(): void" style="text;align=left;verticalAlign=top;spacingLeft=4;spacingRight=4;overflow=hidden;rotatable=0;points=[[0,0.5],[1,0.5]];portConstraint=eastwest;" vertex="1" parent="G9mwLR_gxz6Jy6iitqx3-4">
          <mxGeometry y="192" width="160" height="26" as="geometry" />
        </mxCell>
        <mxCell id="G9mwLR_gxz6Jy6iitqx3-13" value="" style="rounded=0;whiteSpace=wrap;html=1;fillColor=#d5e8d4;strokeColor=#82b366;" vertex="1" parent="1">
          <mxGeometry x="820" y="1970" width="440" height="110" as="geometry" />
        </mxCell>
        <mxCell id="G9mwLR_gxz6Jy6iitqx3-14" value="Konkrét Egyedek" style="text;html=1;strokeColor=none;fillColor=none;align=center;verticalAlign=middle;whiteSpace=wrap;rounded=0;" vertex="1" parent="1">
          <mxGeometry x="815" y="1970" width="140" height="20" as="geometry" />
        </mxCell>
        <mxCell id="G9mwLR_gxz6Jy6iitqx3-15" value="" style="rounded=0;whiteSpace=wrap;html=1;fillColor=#d5e8d4;strokeColor=#82b366;" vertex="1" parent="1">
          <mxGeometry x="1100" y="1840" width="440" height="110" as="geometry" />
        </mxCell>
        <mxCell id="G9mwLR_gxz6Jy6iitqx3-16" value="Konkrét Egyedek" style="text;html=1;strokeColor=none;fillColor=none;align=center;verticalAlign=middle;whiteSpace=wrap;rounded=0;" vertex="1" parent="1">
          <mxGeometry x="1090" y="1840" width="140" height="20" as="geometry" />
        </mxCell>
        <mxCell id="G9mwLR_gxz6Jy6iitqx3-17" value="" style="rounded=0;whiteSpace=wrap;html=1;fillColor=#d5e8d4;strokeColor=#82b366;" vertex="1" parent="1">
          <mxGeometry x="1398" y="1970" width="440" height="110" as="geometry" />
        </mxCell>
        <mxCell id="G9mwLR_gxz6Jy6iitqx3-18" value="MenuSystem" style="swimlane;fontStyle=3;align=center;verticalAlign=top;childLayout=stackLayout;horizontal=1;startSize=26;horizontalStack=0;resizeParent=1;resizeLast=0;collapsible=1;marginBottom=0;rounded=0;shadow=0;strokeWidth=1;" vertex="1" parent="1">
          <mxGeometry x="2230" y="200" width="195" height="734" as="geometry">
            <mxRectangle x="230" y="140" width="160" height="26" as="alternateBounds" />
          </mxGeometry>
        </mxCell>
        <mxCell id="G9mwLR_gxz6Jy6iitqx3-19" value="mainMenu: JFrame" style="text;align=left;verticalAlign=top;spacingLeft=4;spacingRight=4;overflow=hidden;rotatable=0;points=[[0,0.5],[1,0.5]];portConstraint=eastwest;" vertex="1" parent="G9mwLR_gxz6Jy6iitqx3-18">
          <mxGeometry y="26" width="195" height="26" as="geometry" />
        </mxCell>
        <mxCell id="G9mwLR_gxz6Jy6iitqx3-20" value="backgroundImage: ImageIcon" style="text;align=left;verticalAlign=top;spacingLeft=4;spacingRight=4;overflow=hidden;rotatable=0;points=[[0,0.5],[1,0.5]];portConstraint=eastwest;" vertex="1" parent="G9mwLR_gxz6Jy6iitqx3-18">
          <mxGeometry y="52" width="195" height="26" as="geometry" />
        </mxCell>
        <mxCell id="G9mwLR_gxz6Jy6iitqx3-21" value="logoImage: ImageIcon" style="text;align=left;verticalAlign=top;spacingLeft=4;spacingRight=4;overflow=hidden;rotatable=0;points=[[0,0.5],[1,0.5]];portConstraint=eastwest;" vertex="1" parent="G9mwLR_gxz6Jy6iitqx3-18">
          <mxGeometry y="78" width="195" height="26" as="geometry" />
        </mxCell>
        <mxCell id="G9mwLR_gxz6Jy6iitqx3-22" value="buttonJoin: JButton" style="text;align=left;verticalAlign=top;spacingLeft=4;spacingRight=4;overflow=hidden;rotatable=0;points=[[0,0.5],[1,0.5]];portConstraint=eastwest;" vertex="1" parent="G9mwLR_gxz6Jy6iitqx3-18">
          <mxGeometry y="104" width="195" height="26" as="geometry" />
        </mxCell>
        <mxCell id="G9mwLR_gxz6Jy6iitqx3-23" value="buttonHost: JButton" style="text;align=left;verticalAlign=top;spacingLeft=4;spacingRight=4;overflow=hidden;rotatable=0;points=[[0,0.5],[1,0.5]];portConstraint=eastwest;" vertex="1" parent="G9mwLR_gxz6Jy6iitqx3-18">
          <mxGeometry y="130" width="195" height="26" as="geometry" />
        </mxCell>
        <mxCell id="G9mwLR_gxz6Jy6iitqx3-24" value="buttonSettings: JButton" style="text;align=left;verticalAlign=top;spacingLeft=4;spacingRight=4;overflow=hidden;rotatable=0;points=[[0,0.5],[1,0.5]];portConstraint=eastwest;" vertex="1" parent="G9mwLR_gxz6Jy6iitqx3-18">
          <mxGeometry y="156" width="195" height="26" as="geometry" />
        </mxCell>
        <mxCell id="G9mwLR_gxz6Jy6iitqx3-25" value="buttonQuit: JButton" style="text;align=left;verticalAlign=top;spacingLeft=4;spacingRight=4;overflow=hidden;rotatable=0;points=[[0,0.5],[1,0.5]];portConstraint=eastwest;" vertex="1" parent="G9mwLR_gxz6Jy6iitqx3-18">
          <mxGeometry y="182" width="195" height="26" as="geometry" />
        </mxCell>
        <mxCell id="G9mwLR_gxz6Jy6iitqx3-26" value="" style="line;html=1;strokeWidth=1;align=left;verticalAlign=middle;spacingTop=-1;spacingLeft=3;spacingRight=3;rotatable=0;labelPosition=right;points=[];portConstraint=eastwest;" vertex="1" parent="G9mwLR_gxz6Jy6iitqx3-18">
          <mxGeometry y="208" width="195" height="8" as="geometry" />
        </mxCell>
        <mxCell id="G9mwLR_gxz6Jy6iitqx3-27" value="joinMenu: JFrame" style="text;align=left;verticalAlign=top;spacingLeft=4;spacingRight=4;overflow=hidden;rotatable=0;points=[[0,0.5],[1,0.5]];portConstraint=eastwest;" vertex="1" parent="G9mwLR_gxz6Jy6iitqx3-18">
          <mxGeometry y="216" width="195" height="26" as="geometry" />
        </mxCell>
        <mxCell id="G9mwLR_gxz6Jy6iitqx3-28" value="inputServerIPAddress: JTextField" style="text;align=left;verticalAlign=top;spacingLeft=4;spacingRight=4;overflow=hidden;rotatable=0;points=[[0,0.5],[1,0.5]];portConstraint=eastwest;" vertex="1" parent="G9mwLR_gxz6Jy6iitqx3-18">
          <mxGeometry y="242" width="195" height="26" as="geometry" />
        </mxCell>
        <mxCell id="G9mwLR_gxz6Jy6iitqx3-29" value="inputServerPassword: JTextField" style="text;align=left;verticalAlign=top;spacingLeft=4;spacingRight=4;overflow=hidden;rotatable=0;points=[[0,0.5],[1,0.5]];portConstraint=eastwest;" vertex="1" parent="G9mwLR_gxz6Jy6iitqx3-18">
          <mxGeometry y="268" width="195" height="26" as="geometry" />
        </mxCell>
        <mxCell id="G9mwLR_gxz6Jy6iitqx3-30" value="buttonBackToMain: JButton" style="text;align=left;verticalAlign=top;spacingLeft=4;spacingRight=4;overflow=hidden;rotatable=0;points=[[0,0.5],[1,0.5]];portConstraint=eastwest;" vertex="1" parent="G9mwLR_gxz6Jy6iitqx3-18">
          <mxGeometry y="294" width="195" height="26" as="geometry" />
        </mxCell>
        <mxCell id="G9mwLR_gxz6Jy6iitqx3-31" value="buttonJoin: JButton" style="text;align=left;verticalAlign=top;spacingLeft=4;spacingRight=4;overflow=hidden;rotatable=0;points=[[0,0.5],[1,0.5]];portConstraint=eastwest;" vertex="1" parent="G9mwLR_gxz6Jy6iitqx3-18">
          <mxGeometry y="320" width="195" height="26" as="geometry" />
        </mxCell>
        <mxCell id="G9mwLR_gxz6Jy6iitqx3-32" value="" style="line;html=1;strokeWidth=1;align=left;verticalAlign=middle;spacingTop=-1;spacingLeft=3;spacingRight=3;rotatable=0;labelPosition=right;points=[];portConstraint=eastwest;" vertex="1" parent="G9mwLR_gxz6Jy6iitqx3-18">
          <mxGeometry y="346" width="195" height="8" as="geometry" />
        </mxCell>
        <mxCell id="G9mwLR_gxz6Jy6iitqx3-33" value="hostMenu: JFrame" style="text;align=left;verticalAlign=top;spacingLeft=4;spacingRight=4;overflow=hidden;rotatable=0;points=[[0,0.5],[1,0.5]];portConstraint=eastwest;" vertex="1" parent="G9mwLR_gxz6Jy6iitqx3-18">
          <mxGeometry y="354" width="195" height="26" as="geometry" />
        </mxCell>
        <mxCell id="G9mwLR_gxz6Jy6iitqx3-34" value="mapSelection: JRadioButton" style="text;align=left;verticalAlign=top;spacingLeft=4;spacingRight=4;overflow=hidden;rotatable=0;points=[[0,0.5],[1,0.5]];portConstraint=eastwest;" vertex="1" parent="G9mwLR_gxz6Jy6iitqx3-18">
          <mxGeometry y="380" width="195" height="26" as="geometry" />
        </mxCell>
        <mxCell id="G9mwLR_gxz6Jy6iitqx3-35" value="serverPassword: JTextField" style="text;align=left;verticalAlign=top;spacingLeft=4;spacingRight=4;overflow=hidden;rotatable=0;points=[[0,0.5],[1,0.5]];portConstraint=eastwest;" vertex="1" parent="G9mwLR_gxz6Jy6iitqx3-18">
          <mxGeometry y="406" width="195" height="26" as="geometry" />
        </mxCell>
        <mxCell id="G9mwLR_gxz6Jy6iitqx3-36" value="matchDuration: JSlider" style="text;align=left;verticalAlign=top;spacingLeft=4;spacingRight=4;overflow=hidden;rotatable=0;points=[[0,0.5],[1,0.5]];portConstraint=eastwest;" vertex="1" parent="G9mwLR_gxz6Jy6iitqx3-18">
          <mxGeometry y="432" width="195" height="26" as="geometry" />
        </mxCell>
        <mxCell id="G9mwLR_gxz6Jy6iitqx3-37" value="buttonBackToMain: JButton" style="text;align=left;verticalAlign=top;spacingLeft=4;spacingRight=4;overflow=hidden;rotatable=0;points=[[0,0.5],[1,0.5]];portConstraint=eastwest;" vertex="1" parent="G9mwLR_gxz6Jy6iitqx3-18">
          <mxGeometry y="458" width="195" height="26" as="geometry" />
        </mxCell>
        <mxCell id="G9mwLR_gxz6Jy6iitqx3-38" value="buttonStart: JButton" style="text;align=left;verticalAlign=top;spacingLeft=4;spacingRight=4;overflow=hidden;rotatable=0;points=[[0,0.5],[1,0.5]];portConstraint=eastwest;" vertex="1" parent="G9mwLR_gxz6Jy6iitqx3-18">
          <mxGeometry y="484" width="195" height="26" as="geometry" />
        </mxCell>
        <mxCell id="G9mwLR_gxz6Jy6iitqx3-39" value="" style="line;html=1;strokeWidth=1;align=left;verticalAlign=middle;spacingTop=-1;spacingLeft=3;spacingRight=3;rotatable=0;labelPosition=right;points=[];portConstraint=eastwest;" vertex="1" parent="G9mwLR_gxz6Jy6iitqx3-18">
          <mxGeometry y="510" width="195" height="8" as="geometry" />
        </mxCell>
        <mxCell id="G9mwLR_gxz6Jy6iitqx3-40" value="settingsMenu: JFrame" style="text;align=left;verticalAlign=top;spacingLeft=4;spacingRight=4;overflow=hidden;rotatable=0;points=[[0,0.5],[1,0.5]];portConstraint=eastwest;" vertex="1" parent="G9mwLR_gxz6Jy6iitqx3-18">
          <mxGeometry y="518" width="195" height="26" as="geometry" />
        </mxCell>
        <mxCell id="G9mwLR_gxz6Jy6iitqx3-41" value="playerName: JTextField" style="text;align=left;verticalAlign=top;spacingLeft=4;spacingRight=4;overflow=hidden;rotatable=0;points=[[0,0.5],[1,0.5]];portConstraint=eastwest;" vertex="1" parent="G9mwLR_gxz6Jy6iitqx3-18">
          <mxGeometry y="544" width="195" height="26" as="geometry" />
        </mxCell>
        <mxCell id="G9mwLR_gxz6Jy6iitqx3-42" value="characterSelection: JRadioButton" style="text;align=left;verticalAlign=top;spacingLeft=4;spacingRight=4;overflow=hidden;rotatable=0;points=[[0,0.5],[1,0.5]];portConstraint=eastwest;" vertex="1" parent="G9mwLR_gxz6Jy6iitqx3-18">
          <mxGeometry y="570" width="195" height="26" as="geometry" />
        </mxCell>
        <mxCell id="G9mwLR_gxz6Jy6iitqx3-43" value="buttonBackToMain: JButton" style="text;align=left;verticalAlign=top;spacingLeft=4;spacingRight=4;overflow=hidden;rotatable=0;points=[[0,0.5],[1,0.5]];portConstraint=eastwest;" vertex="1" parent="G9mwLR_gxz6Jy6iitqx3-18">
          <mxGeometry y="596" width="195" height="26" as="geometry" />
        </mxCell>
        <mxCell id="G9mwLR_gxz6Jy6iitqx3-44" value="" style="line;html=1;strokeWidth=1;align=left;verticalAlign=middle;spacingTop=-1;spacingLeft=3;spacingRight=3;rotatable=0;labelPosition=right;points=[];portConstraint=eastwest;" vertex="1" parent="G9mwLR_gxz6Jy6iitqx3-18">
          <mxGeometry y="622" width="195" height="8" as="geometry" />
        </mxCell>
        <mxCell id="G9mwLR_gxz6Jy6iitqx3-45" value="joinMenu(): void" style="text;align=left;verticalAlign=top;spacingLeft=4;spacingRight=4;overflow=hidden;rotatable=0;points=[[0,0.5],[1,0.5]];portConstraint=eastwest;" vertex="1" parent="G9mwLR_gxz6Jy6iitqx3-18">
          <mxGeometry y="630" width="195" height="26" as="geometry" />
        </mxCell>
        <mxCell id="G9mwLR_gxz6Jy6iitqx3-46" value="hostMenu(): void" style="text;align=left;verticalAlign=top;spacingLeft=4;spacingRight=4;overflow=hidden;rotatable=0;points=[[0,0.5],[1,0.5]];portConstraint=eastwest;" vertex="1" parent="G9mwLR_gxz6Jy6iitqx3-18">
          <mxGeometry y="656" width="195" height="26" as="geometry" />
        </mxCell>
        <mxCell id="G9mwLR_gxz6Jy6iitqx3-47" value="settingsMenu(): void" style="text;align=left;verticalAlign=top;spacingLeft=4;spacingRight=4;overflow=hidden;rotatable=0;points=[[0,0.5],[1,0.5]];portConstraint=eastwest;" vertex="1" parent="G9mwLR_gxz6Jy6iitqx3-18">
          <mxGeometry y="682" width="195" height="26" as="geometry" />
        </mxCell>
        <mxCell id="G9mwLR_gxz6Jy6iitqx3-48" value="quitGame(): void" style="text;align=left;verticalAlign=top;spacingLeft=4;spacingRight=4;overflow=hidden;rotatable=0;points=[[0,0.5],[1,0.5]];portConstraint=eastwest;" vertex="1" parent="G9mwLR_gxz6Jy6iitqx3-18">
          <mxGeometry y="708" width="195" height="26" as="geometry" />
        </mxCell>
        <mxCell id="G9mwLR_gxz6Jy6iitqx3-49" value="JoinMenu" style="swimlane;fontStyle=1;align=center;verticalAlign=top;childLayout=stackLayout;horizontal=1;startSize=26;horizontalStack=0;resizeParent=1;resizeParentMax=0;resizeLast=0;collapsible=1;marginBottom=0;strokeColor=none;fillColor=#66B2FF;" vertex="1" collapsed="1" parent="1">
          <mxGeometry x="2470" y="440" width="90" height="26" as="geometry">
            <mxRectangle x="1020" y="368" width="190" height="34" as="alternateBounds" />
          </mxGeometry>
        </mxCell>
        <mxCell id="G9mwLR_gxz6Jy6iitqx3-50" value="HostMenu" style="swimlane;fontStyle=1;align=center;verticalAlign=top;childLayout=stackLayout;horizontal=1;startSize=26;horizontalStack=0;resizeParent=1;resizeParentMax=0;resizeLast=0;collapsible=1;marginBottom=0;strokeColor=none;fillColor=#66B2FF;" vertex="1" collapsed="1" parent="1">
          <mxGeometry x="2470" y="590" width="90" height="26" as="geometry">
            <mxRectangle x="1020" y="520" width="190" height="34" as="alternateBounds" />
          </mxGeometry>
        </mxCell>
        <mxCell id="G9mwLR_gxz6Jy6iitqx3-51" value="SettingsMenu" style="swimlane;fontStyle=1;align=center;verticalAlign=top;childLayout=stackLayout;horizontal=1;startSize=26;horizontalStack=0;resizeParent=1;resizeParentMax=0;resizeLast=0;collapsible=1;marginBottom=0;strokeColor=none;fillColor=#66B2FF;" vertex="1" collapsed="1" parent="1">
          <mxGeometry x="2470" y="730" width="90" height="26" as="geometry">
            <mxRectangle x="1020" y="660" width="190" height="34" as="alternateBounds" />
          </mxGeometry>
        </mxCell>
        <mxCell id="G9mwLR_gxz6Jy6iitqx3-52" value="If you enter name and press key.ENTER,&#xa;save the settings.&#xa;setPlayerName()" style="text;strokeColor=none;fillColor=none;align=left;verticalAlign=top;spacingLeft=4;spacingRight=4;overflow=hidden;rotatable=0;points=[[0,0.5],[1,0.5]];portConstraint=eastwest;" vertex="1" parent="1">
          <mxGeometry x="2470" y="756" width="227.5" height="64" as="geometry" />
        </mxCell>
        <mxCell id="G9mwLR_gxz6Jy6iitqx3-53" value="JRadioButton -» The first is &#xa;selected as default&#xa;&#xa;" style="text;strokeColor=none;fillColor=none;align=left;verticalAlign=top;spacingLeft=4;spacingRight=4;overflow=hidden;rotatable=0;points=[[0,0.5],[1,0.5]];portConstraint=eastwest;" vertex="1" parent="1">
          <mxGeometry x="2450" y="626" width="157.5" height="40" as="geometry" />
        </mxCell>
        <mxCell id="G9mwLR_gxz6Jy6iitqx3-54" value="ScoreTable" style="swimlane;fontStyle=3;align=center;verticalAlign=top;childLayout=stackLayout;horizontal=1;startSize=26;horizontalStack=0;resizeParent=1;resizeLast=0;collapsible=1;marginBottom=0;rounded=0;shadow=0;strokeWidth=1;fillColor=#0050ef;strokeColor=#001DBC;fontColor=#ffffff;" vertex="1" parent="1">
          <mxGeometry x="2980" y="1520" width="190" height="398" as="geometry">
            <mxRectangle x="230" y="140" width="160" height="26" as="alternateBounds" />
          </mxGeometry>
        </mxCell>
        <mxCell id="G9mwLR_gxz6Jy6iitqx3-55" value="panelScore: JPanel" style="text;align=left;verticalAlign=top;spacingLeft=4;spacingRight=4;overflow=hidden;rotatable=0;points=[[0,0.5],[1,0.5]];portConstraint=eastwest;" vertex="1" parent="G9mwLR_gxz6Jy6iitqx3-54">
          <mxGeometry y="26" width="190" height="26" as="geometry" />
        </mxCell>
        <mxCell id="G9mwLR_gxz6Jy6iitqx3-56" value="buttonWriteToFile: JButton" style="text;align=left;verticalAlign=top;spacingLeft=4;spacingRight=4;overflow=hidden;rotatable=0;points=[[0,0.5],[1,0.5]];portConstraint=eastwest;" vertex="1" parent="G9mwLR_gxz6Jy6iitqx3-54">
          <mxGeometry y="52" width="190" height="26" as="geometry" />
        </mxCell>
        <mxCell id="G9mwLR_gxz6Jy6iitqx3-57" value="buttonRematch: JButton" style="text;align=left;verticalAlign=top;spacingLeft=4;spacingRight=4;overflow=hidden;rotatable=0;points=[[0,0.5],[1,0.5]];portConstraint=eastwest;" vertex="1" parent="G9mwLR_gxz6Jy6iitqx3-54">
          <mxGeometry y="78" width="190" height="26" as="geometry" />
        </mxCell>
        <mxCell id="G9mwLR_gxz6Jy6iitqx3-58" value="buttonQuitToMenu: JButton" style="text;align=left;verticalAlign=top;spacingLeft=4;spacingRight=4;overflow=hidden;rotatable=0;points=[[0,0.5],[1,0.5]];portConstraint=eastwest;" vertex="1" parent="G9mwLR_gxz6Jy6iitqx3-54">
          <mxGeometry y="104" width="190" height="26" as="geometry" />
        </mxCell>
        <mxCell id="G9mwLR_gxz6Jy6iitqx3-59" value="labelScore: JLabel" style="text;align=left;verticalAlign=top;spacingLeft=4;spacingRight=4;overflow=hidden;rotatable=0;points=[[0,0.5],[1,0.5]];portConstraint=eastwest;" vertex="1" parent="G9mwLR_gxz6Jy6iitqx3-54">
          <mxGeometry y="130" width="190" height="26" as="geometry" />
        </mxCell>
        <mxCell id="G9mwLR_gxz6Jy6iitqx3-60" value="scoreTableEnabled: boolean" style="text;align=left;verticalAlign=top;spacingLeft=4;spacingRight=4;overflow=hidden;rotatable=0;points=[[0,0.5],[1,0.5]];portConstraint=eastwest;" vertex="1" parent="G9mwLR_gxz6Jy6iitqx3-54">
          <mxGeometry y="156" width="190" height="26" as="geometry" />
        </mxCell>
        <mxCell id="G9mwLR_gxz6Jy6iitqx3-61" value="resultsFile: File" style="text;align=left;verticalAlign=top;spacingLeft=4;spacingRight=4;overflow=hidden;rotatable=0;points=[[0,0.5],[1,0.5]];portConstraint=eastwest;" vertex="1" parent="G9mwLR_gxz6Jy6iitqx3-54">
          <mxGeometry y="182" width="190" height="26" as="geometry" />
        </mxCell>
        <mxCell id="G9mwLR_gxz6Jy6iitqx3-62" value="" style="line;html=1;strokeWidth=1;align=left;verticalAlign=middle;spacingTop=-1;spacingLeft=3;spacingRight=3;rotatable=0;labelPosition=right;points=[];portConstraint=eastwest;" vertex="1" parent="G9mwLR_gxz6Jy6iitqx3-54">
          <mxGeometry y="208" width="190" height="8" as="geometry" />
        </mxCell>
        <mxCell id="G9mwLR_gxz6Jy6iitqx3-63" value="quitToMenu(): void" style="text;align=left;verticalAlign=top;spacingLeft=4;spacingRight=4;overflow=hidden;rotatable=0;points=[[0,0.5],[1,0.5]];portConstraint=eastwest;rounded=0;shadow=0;html=0;" vertex="1" parent="G9mwLR_gxz6Jy6iitqx3-54">
          <mxGeometry y="216" width="190" height="26" as="geometry" />
        </mxCell>
        <mxCell id="G9mwLR_gxz6Jy6iitqx3-64" value="rematch(): void" style="text;align=left;verticalAlign=top;spacingLeft=4;spacingRight=4;overflow=hidden;rotatable=0;points=[[0,0.5],[1,0.5]];portConstraint=eastwest;rounded=0;shadow=0;html=0;" vertex="1" parent="G9mwLR_gxz6Jy6iitqx3-54">
          <mxGeometry y="242" width="190" height="26" as="geometry" />
        </mxCell>
        <mxCell id="G9mwLR_gxz6Jy6iitqx3-65" value="writeToFile(): void" style="text;align=left;verticalAlign=top;spacingLeft=4;spacingRight=4;overflow=hidden;rotatable=0;points=[[0,0.5],[1,0.5]];portConstraint=eastwest;" vertex="1" parent="G9mwLR_gxz6Jy6iitqx3-54">
          <mxGeometry y="268" width="190" height="26" as="geometry" />
        </mxCell>
        <mxCell id="G9mwLR_gxz6Jy6iitqx3-66" value="openFile(): void" style="text;align=left;verticalAlign=top;spacingLeft=4;spacingRight=4;overflow=hidden;rotatable=0;points=[[0,0.5],[1,0.5]];portConstraint=eastwest;" vertex="1" parent="G9mwLR_gxz6Jy6iitqx3-54">
          <mxGeometry y="294" width="190" height="26" as="geometry" />
        </mxCell>
        <mxCell id="G9mwLR_gxz6Jy6iitqx3-67" value="printPlayersAndScores: void()" style="text;align=left;verticalAlign=top;spacingLeft=4;spacingRight=4;overflow=hidden;rotatable=0;points=[[0,0.5],[1,0.5]];portConstraint=eastwest;" vertex="1" parent="G9mwLR_gxz6Jy6iitqx3-54">
          <mxGeometry y="320" width="190" height="26" as="geometry" />
        </mxCell>
        <mxCell id="G9mwLR_gxz6Jy6iitqx3-68" value="showScoreTable(): void" style="text;align=left;verticalAlign=top;spacingLeft=4;spacingRight=4;overflow=hidden;rotatable=0;points=[[0,0.5],[1,0.5]];portConstraint=eastwest;" vertex="1" parent="G9mwLR_gxz6Jy6iitqx3-54">
          <mxGeometry y="346" width="190" height="26" as="geometry" />
        </mxCell>
        <mxCell id="G9mwLR_gxz6Jy6iitqx3-69" value="hideScoreTable(): void" style="text;align=left;verticalAlign=top;spacingLeft=4;spacingRight=4;overflow=hidden;rotatable=0;points=[[0,0.5],[1,0.5]];portConstraint=eastwest;" vertex="1" parent="G9mwLR_gxz6Jy6iitqx3-54">
          <mxGeometry y="372" width="190" height="26" as="geometry" />
        </mxCell>
        <mxCell id="G9mwLR_gxz6Jy6iitqx3-70" value="objectName and playerScore &#xa;will be reachable as get...()&#xa;A meccs végén megejelenik.&#xa;Tab lenyomásával akár &#xa;megjeleníthetjük (ha jut rá idő)" style="text;strokeColor=none;fillColor=none;align=left;verticalAlign=top;spacingLeft=4;spacingRight=4;overflow=hidden;rotatable=0;points=[[0,0.5],[1,0.5]];portConstraint=eastwest;" vertex="1" parent="1">
          <mxGeometry x="2990" y="1930" width="170" height="90" as="geometry" />
        </mxCell>
        <mxCell id="G9mwLR_gxz6Jy6iitqx3-71" value="Player" style="swimlane;fontStyle=3;align=center;verticalAlign=top;childLayout=stackLayout;horizontal=1;startSize=26;horizontalStack=0;resizeParent=1;resizeLast=0;collapsible=1;marginBottom=0;rounded=0;shadow=0;strokeWidth=1;" vertex="1" parent="1">
          <mxGeometry x="950" y="1560" width="190" height="242" as="geometry">
            <mxRectangle x="230" y="140" width="160" height="26" as="alternateBounds" />
          </mxGeometry>
        </mxCell>
        <mxCell id="G9mwLR_gxz6Jy6iitqx3-72" value="playerHealth: int" style="text;align=left;verticalAlign=top;spacingLeft=4;spacingRight=4;overflow=hidden;rotatable=0;points=[[0,0.5],[1,0.5]];portConstraint=eastwest;rounded=0;shadow=0;html=0;" vertex="1" parent="G9mwLR_gxz6Jy6iitqx3-71">
          <mxGeometry y="26" width="190" height="26" as="geometry" />
        </mxCell>
        <mxCell id="G9mwLR_gxz6Jy6iitqx3-73" value="playerScore: int" style="text;align=left;verticalAlign=top;spacingLeft=4;spacingRight=4;overflow=hidden;rotatable=0;points=[[0,0.5],[1,0.5]];portConstraint=eastwest;rounded=0;shadow=0;html=0;" vertex="1" parent="G9mwLR_gxz6Jy6iitqx3-71">
          <mxGeometry y="52" width="190" height="26" as="geometry" />
        </mxCell>
        <mxCell id="G9mwLR_gxz6Jy6iitqx3-74" value="playerWeapon: Weapon" style="text;align=left;verticalAlign=top;spacingLeft=4;spacingRight=4;overflow=hidden;rotatable=0;points=[[0,0.5],[1,0.5]];portConstraint=eastwest;rounded=0;shadow=0;html=0;fillColor=#fff2cc;strokeColor=#d6b656;" vertex="1" parent="G9mwLR_gxz6Jy6iitqx3-71">
          <mxGeometry y="78" width="190" height="26" as="geometry" />
        </mxCell>
        <mxCell id="G9mwLR_gxz6Jy6iitqx3-75" value="" style="line;html=1;strokeWidth=1;align=left;verticalAlign=middle;spacingTop=-1;spacingLeft=3;spacingRight=3;rotatable=0;labelPosition=right;points=[];portConstraint=eastwest;" vertex="1" parent="G9mwLR_gxz6Jy6iitqx3-71">
          <mxGeometry y="104" width="190" height="8" as="geometry" />
        </mxCell>
        <mxCell id="G9mwLR_gxz6Jy6iitqx3-76" value="moveLeft(): void" style="text;align=left;verticalAlign=top;spacingLeft=4;spacingRight=4;overflow=hidden;rotatable=0;points=[[0,0.5],[1,0.5]];portConstraint=eastwest;" vertex="1" parent="G9mwLR_gxz6Jy6iitqx3-71">
          <mxGeometry y="112" width="190" height="26" as="geometry" />
        </mxCell>
        <mxCell id="G9mwLR_gxz6Jy6iitqx3-77" value="moveRight(): void" style="text;align=left;verticalAlign=top;spacingLeft=4;spacingRight=4;overflow=hidden;rotatable=0;points=[[0,0.5],[1,0.5]];portConstraint=eastwest;" vertex="1" parent="G9mwLR_gxz6Jy6iitqx3-71">
          <mxGeometry y="138" width="190" height="26" as="geometry" />
        </mxCell>
        <mxCell id="G9mwLR_gxz6Jy6iitqx3-78" value="jump(): void" style="text;align=left;verticalAlign=top;spacingLeft=4;spacingRight=4;overflow=hidden;rotatable=0;points=[[0,0.5],[1,0.5]];portConstraint=eastwest;" vertex="1" parent="G9mwLR_gxz6Jy6iitqx3-71">
          <mxGeometry y="164" width="190" height="26" as="geometry" />
        </mxCell>
        <mxCell id="G9mwLR_gxz6Jy6iitqx3-79" value="pickUp(): void" style="text;align=left;verticalAlign=top;spacingLeft=4;spacingRight=4;overflow=hidden;rotatable=0;points=[[0,0.5],[1,0.5]];portConstraint=eastwest;" vertex="1" parent="G9mwLR_gxz6Jy6iitqx3-71">
          <mxGeometry y="190" width="190" height="26" as="geometry" />
        </mxCell>
        <mxCell id="G9mwLR_gxz6Jy6iitqx3-80" value="healthUpdate(): void" style="text;align=left;verticalAlign=top;spacingLeft=4;spacingRight=4;overflow=hidden;rotatable=0;points=[[0,0.5],[1,0.5]];portConstraint=eastwest;" vertex="1" parent="G9mwLR_gxz6Jy6iitqx3-71">
          <mxGeometry y="216" width="190" height="26" as="geometry" />
        </mxCell>
        <mxCell id="G9mwLR_gxz6Jy6iitqx3-81" style="edgeStyle=orthogonalEdgeStyle;rounded=0;orthogonalLoop=1;jettySize=auto;html=1;exitX=0.25;exitY=0;exitDx=0;exitDy=0;entryX=0.471;entryY=1;entryDx=0;entryDy=0;entryPerimeter=0;" edge="1" parent="1" source="G9mwLR_gxz6Jy6iitqx3-82">
          <mxGeometry relative="1" as="geometry">
            <mxPoint x="1270.0699999999997" y="1340" as="targetPoint" />
            <Array as="points">
              <mxPoint x="1435" y="1530" />
              <mxPoint x="1270" y="1530" />
            </Array>
          </mxGeometry>
        </mxCell>
        <mxCell id="G9mwLR_gxz6Jy6iitqx3-82" value="Weapon" style="swimlane;fontStyle=1;align=center;verticalAlign=top;childLayout=stackLayout;horizontal=1;startSize=26;horizontalStack=0;resizeParent=1;resizeLast=0;collapsible=1;marginBottom=0;rounded=0;shadow=0;strokeWidth=1;fillColor=#fff2cc;strokeColor=#d6b656;" vertex="1" parent="1">
          <mxGeometry x="1390" y="1560" width="180" height="200" as="geometry">
            <mxRectangle x="130" y="380" width="160" height="26" as="alternateBounds" />
          </mxGeometry>
        </mxCell>
        <mxCell id="G9mwLR_gxz6Jy6iitqx3-83" value="weaponType: int" style="text;align=left;verticalAlign=top;spacingLeft=4;spacingRight=4;overflow=hidden;rotatable=0;points=[[0,0.5],[1,0.5]];portConstraint=eastwest;" vertex="1" parent="G9mwLR_gxz6Jy6iitqx3-82">
          <mxGeometry y="26" width="180" height="30" as="geometry" />
        </mxCell>
        <mxCell id="G9mwLR_gxz6Jy6iitqx3-84" value="weaponDmg: int" style="text;align=left;verticalAlign=top;spacingLeft=4;spacingRight=4;overflow=hidden;rotatable=0;points=[[0,0.5],[1,0.5]];portConstraint=eastwest;rounded=0;shadow=0;html=0;" vertex="1" parent="G9mwLR_gxz6Jy6iitqx3-82">
          <mxGeometry y="56" width="180" height="28" as="geometry" />
        </mxCell>
        <mxCell id="G9mwLR_gxz6Jy6iitqx3-85" value="weaponAmmo: int" style="text;align=left;verticalAlign=top;spacingLeft=4;spacingRight=4;overflow=hidden;rotatable=0;points=[[0,0.5],[1,0.5]];portConstraint=eastwest;" vertex="1" parent="G9mwLR_gxz6Jy6iitqx3-82">
          <mxGeometry y="84" width="180" height="26" as="geometry" />
        </mxCell>
        <mxCell id="G9mwLR_gxz6Jy6iitqx3-86" value="weaponProjectile: Projectile" style="text;align=left;verticalAlign=top;spacingLeft=4;spacingRight=4;overflow=hidden;rotatable=0;points=[[0,0.5],[1,0.5]];portConstraint=eastwest;fillColor=#ffe6cc;strokeColor=#d79b00;" vertex="1" parent="G9mwLR_gxz6Jy6iitqx3-82">
          <mxGeometry y="110" width="180" height="26" as="geometry" />
        </mxCell>
        <mxCell id="G9mwLR_gxz6Jy6iitqx3-87" value="weaponFireRate: int" style="text;strokeColor=none;fillColor=none;align=left;verticalAlign=top;spacingLeft=4;spacingRight=4;overflow=hidden;rotatable=0;points=[[0,0.5],[1,0.5]];portConstraint=eastwest;" vertex="1" parent="G9mwLR_gxz6Jy6iitqx3-82">
          <mxGeometry y="136" width="180" height="30" as="geometry" />
        </mxCell>
        <mxCell id="G9mwLR_gxz6Jy6iitqx3-88" value="" style="line;html=1;strokeWidth=1;align=left;verticalAlign=middle;spacingTop=-1;spacingLeft=3;spacingRight=3;rotatable=0;labelPosition=right;points=[];portConstraint=eastwest;" vertex="1" parent="G9mwLR_gxz6Jy6iitqx3-82">
          <mxGeometry y="166" width="180" height="8" as="geometry" />
        </mxCell>
        <mxCell id="G9mwLR_gxz6Jy6iitqx3-89" value="Shoot(): void" style="text;align=left;verticalAlign=top;spacingLeft=4;spacingRight=4;overflow=hidden;rotatable=0;points=[[0,0.5],[1,0.5]];portConstraint=eastwest;" vertex="1" parent="G9mwLR_gxz6Jy6iitqx3-82">
          <mxGeometry y="174" width="180" height="26" as="geometry" />
        </mxCell>
        <mxCell id="G9mwLR_gxz6Jy6iitqx3-90" value="Handgun" style="swimlane;fontStyle=0;align=center;verticalAlign=top;childLayout=stackLayout;horizontal=1;startSize=26;horizontalStack=0;resizeParent=1;resizeLast=0;collapsible=1;marginBottom=0;rounded=0;shadow=0;strokeWidth=1;" vertex="1" parent="1">
          <mxGeometry x="1410" y="1998" width="100" height="70" as="geometry">
            <mxRectangle x="340" y="380" width="170" height="26" as="alternateBounds" />
          </mxGeometry>
        </mxCell>
        <mxCell id="G9mwLR_gxz6Jy6iitqx3-91" value="" style="line;html=1;strokeWidth=1;align=left;verticalAlign=middle;spacingTop=-1;spacingLeft=3;spacingRight=3;rotatable=0;labelPosition=right;points=[];portConstraint=eastwest;" vertex="1" parent="G9mwLR_gxz6Jy6iitqx3-90">
          <mxGeometry y="26" width="100" height="8" as="geometry" />
        </mxCell>
        <mxCell id="G9mwLR_gxz6Jy6iitqx3-92" value="The Undertaker " style="swimlane;fontStyle=0;align=center;verticalAlign=top;childLayout=stackLayout;horizontal=1;startSize=26;horizontalStack=0;resizeParent=1;resizeLast=0;collapsible=1;marginBottom=0;rounded=0;shadow=0;strokeWidth=1;" vertex="1" parent="1">
          <mxGeometry x="1518" y="1998" width="100" height="70" as="geometry">
            <mxRectangle x="340" y="380" width="170" height="26" as="alternateBounds" />
          </mxGeometry>
        </mxCell>
        <mxCell id="G9mwLR_gxz6Jy6iitqx3-93" value="" style="line;html=1;strokeWidth=1;align=left;verticalAlign=middle;spacingTop=-1;spacingLeft=3;spacingRight=3;rotatable=0;labelPosition=right;points=[];portConstraint=eastwest;" vertex="1" parent="G9mwLR_gxz6Jy6iitqx3-92">
          <mxGeometry y="26" width="100" height="8" as="geometry" />
        </mxCell>
        <mxCell id="G9mwLR_gxz6Jy6iitqx3-94" value="Phoenix Blaster" style="swimlane;fontStyle=0;align=center;verticalAlign=top;childLayout=stackLayout;horizontal=1;startSize=26;horizontalStack=0;resizeParent=1;resizeLast=0;collapsible=1;marginBottom=0;rounded=0;shadow=0;strokeWidth=1;" vertex="1" parent="1">
          <mxGeometry x="1630" y="1998" width="90" height="70" as="geometry">
            <mxRectangle x="340" y="380" width="170" height="26" as="alternateBounds" />
          </mxGeometry>
        </mxCell>
        <mxCell id="G9mwLR_gxz6Jy6iitqx3-95" value="" style="line;html=1;strokeWidth=1;align=left;verticalAlign=middle;spacingTop=-1;spacingLeft=3;spacingRight=3;rotatable=0;labelPosition=right;points=[];portConstraint=eastwest;" vertex="1" parent="G9mwLR_gxz6Jy6iitqx3-94">
          <mxGeometry y="26" width="90" height="8" as="geometry" />
        </mxCell>
        <mxCell id="G9mwLR_gxz6Jy6iitqx3-96" style="edgeStyle=orthogonalEdgeStyle;rounded=0;orthogonalLoop=1;jettySize=auto;html=1;exitX=0.25;exitY=0;exitDx=0;exitDy=0;entryX=0.3;entryY=1;entryDx=0;entryDy=0;entryPerimeter=0;" edge="1" parent="1" source="G9mwLR_gxz6Jy6iitqx3-97">
          <mxGeometry relative="1" as="geometry">
            <mxPoint x="1241" y="1340" as="targetPoint" />
            <Array as="points">
              <mxPoint x="1241" y="1560" />
            </Array>
          </mxGeometry>
        </mxCell>
        <mxCell id="G9mwLR_gxz6Jy6iitqx3-97" value="Consumable" style="swimlane;fontStyle=3;align=center;verticalAlign=top;childLayout=stackLayout;horizontal=1;startSize=26;horizontalStack=0;resizeParent=1;resizeLast=0;collapsible=1;marginBottom=0;rounded=0;shadow=0;strokeWidth=1;" vertex="1" parent="1">
          <mxGeometry x="1170" y="1560" width="180" height="90" as="geometry">
            <mxRectangle x="230" y="140" width="160" height="26" as="alternateBounds" />
          </mxGeometry>
        </mxCell>
        <mxCell id="G9mwLR_gxz6Jy6iitqx3-98" value="consumablesType: int" style="text;align=left;verticalAlign=top;spacingLeft=4;spacingRight=4;overflow=hidden;rotatable=0;points=[[0,0.5],[1,0.5]];portConstraint=eastwest;rounded=0;shadow=0;html=0;" vertex="1" parent="G9mwLR_gxz6Jy6iitqx3-97">
          <mxGeometry y="26" width="180" height="26" as="geometry" />
        </mxCell>
        <mxCell id="G9mwLR_gxz6Jy6iitqx3-99" value="" style="line;html=1;strokeWidth=1;align=left;verticalAlign=middle;spacingTop=-1;spacingLeft=3;spacingRight=3;rotatable=0;labelPosition=right;points=[];portConstraint=eastwest;" vertex="1" parent="G9mwLR_gxz6Jy6iitqx3-97">
          <mxGeometry y="52" width="180" height="8" as="geometry" />
        </mxCell>
        <mxCell id="G9mwLR_gxz6Jy6iitqx3-100" value="Use(): void" style="text;align=left;verticalAlign=top;spacingLeft=4;spacingRight=4;overflow=hidden;rotatable=0;points=[[0,0.5],[1,0.5]];portConstraint=eastwest;" vertex="1" parent="G9mwLR_gxz6Jy6iitqx3-97">
          <mxGeometry y="60" width="180" height="26" as="geometry" />
        </mxCell>
        <mxCell id="G9mwLR_gxz6Jy6iitqx3-101" value="HealthPotion" style="swimlane;fontStyle=0;align=center;verticalAlign=top;childLayout=stackLayout;horizontal=1;startSize=26;horizontalStack=0;resizeParent=1;resizeLast=0;collapsible=1;marginBottom=0;rounded=0;shadow=0;strokeWidth=1;" vertex="1" parent="1">
          <mxGeometry x="1165" y="1870" width="100" height="70" as="geometry">
            <mxRectangle x="340" y="380" width="170" height="26" as="alternateBounds" />
          </mxGeometry>
        </mxCell>
        <mxCell id="G9mwLR_gxz6Jy6iitqx3-102" value="" style="line;html=1;strokeWidth=1;align=left;verticalAlign=middle;spacingTop=-1;spacingLeft=3;spacingRight=3;rotatable=0;labelPosition=right;points=[];portConstraint=eastwest;" vertex="1" parent="G9mwLR_gxz6Jy6iitqx3-101">
          <mxGeometry y="26" width="100" height="8" as="geometry" />
        </mxCell>
        <mxCell id="G9mwLR_gxz6Jy6iitqx3-103" value="Ammo" style="swimlane;fontStyle=0;align=center;verticalAlign=top;childLayout=stackLayout;horizontal=1;startSize=26;horizontalStack=0;resizeParent=1;resizeLast=0;collapsible=1;marginBottom=0;rounded=0;shadow=0;strokeWidth=1;" vertex="1" parent="1">
          <mxGeometry x="1285" y="1870" width="100" height="70" as="geometry">
            <mxRectangle x="340" y="380" width="170" height="26" as="alternateBounds" />
          </mxGeometry>
        </mxCell>
        <mxCell id="G9mwLR_gxz6Jy6iitqx3-104" value="" style="line;html=1;strokeWidth=1;align=left;verticalAlign=middle;spacingTop=-1;spacingLeft=3;spacingRight=3;rotatable=0;labelPosition=right;points=[];portConstraint=eastwest;" vertex="1" parent="G9mwLR_gxz6Jy6iitqx3-103">
          <mxGeometry y="26" width="100" height="8" as="geometry" />
        </mxCell>
        <mxCell id="G9mwLR_gxz6Jy6iitqx3-105" value="2xMultiplier" style="swimlane;fontStyle=0;align=center;verticalAlign=top;childLayout=stackLayout;horizontal=1;startSize=26;horizontalStack=0;resizeParent=1;resizeLast=0;collapsible=1;marginBottom=0;rounded=0;shadow=0;strokeWidth=1;" vertex="1" parent="1">
          <mxGeometry x="1410" y="1870" width="90" height="70" as="geometry">
            <mxRectangle x="340" y="380" width="170" height="26" as="alternateBounds" />
          </mxGeometry>
        </mxCell>
        <mxCell id="G9mwLR_gxz6Jy6iitqx3-106" value="" style="line;html=1;strokeWidth=1;align=left;verticalAlign=middle;spacingTop=-1;spacingLeft=3;spacingRight=3;rotatable=0;labelPosition=right;points=[];portConstraint=eastwest;" vertex="1" parent="G9mwLR_gxz6Jy6iitqx3-105">
          <mxGeometry y="26" width="90" height="8" as="geometry" />
        </mxCell>
        <mxCell id="G9mwLR_gxz6Jy6iitqx3-107" value="Player1" style="swimlane;fontStyle=0;align=center;verticalAlign=top;childLayout=stackLayout;horizontal=1;startSize=26;horizontalStack=0;resizeParent=1;resizeLast=0;collapsible=1;marginBottom=0;rounded=0;shadow=0;strokeWidth=1;" vertex="1" parent="1">
          <mxGeometry x="911" y="2000" width="90" height="70" as="geometry">
            <mxRectangle x="340" y="380" width="170" height="26" as="alternateBounds" />
          </mxGeometry>
        </mxCell>
        <mxCell id="G9mwLR_gxz6Jy6iitqx3-108" value="" style="line;html=1;strokeWidth=1;align=left;verticalAlign=middle;spacingTop=-1;spacingLeft=3;spacingRight=3;rotatable=0;labelPosition=right;points=[];portConstraint=eastwest;" vertex="1" parent="G9mwLR_gxz6Jy6iitqx3-107">
          <mxGeometry y="26" width="90" height="8" as="geometry" />
        </mxCell>
        <mxCell id="G9mwLR_gxz6Jy6iitqx3-109" value="Player2" style="swimlane;fontStyle=0;align=center;verticalAlign=top;childLayout=stackLayout;horizontal=1;startSize=26;horizontalStack=0;resizeParent=1;resizeLast=0;collapsible=1;marginBottom=0;rounded=0;shadow=0;strokeWidth=1;" vertex="1" parent="1">
          <mxGeometry x="1031" y="2000" width="90" height="70" as="geometry">
            <mxRectangle x="340" y="380" width="170" height="26" as="alternateBounds" />
          </mxGeometry>
        </mxCell>
        <mxCell id="G9mwLR_gxz6Jy6iitqx3-110" value="" style="line;html=1;strokeWidth=1;align=left;verticalAlign=middle;spacingTop=-1;spacingLeft=3;spacingRight=3;rotatable=0;labelPosition=right;points=[];portConstraint=eastwest;" vertex="1" parent="G9mwLR_gxz6Jy6iitqx3-109">
          <mxGeometry y="26" width="90" height="8" as="geometry" />
        </mxCell>
        <mxCell id="G9mwLR_gxz6Jy6iitqx3-111" value="GameObject ABSTRACT?" style="swimlane;fontStyle=3;align=center;verticalAlign=top;childLayout=stackLayout;horizontal=1;startSize=26;horizontalStack=0;resizeParent=1;resizeLast=0;collapsible=1;marginBottom=0;rounded=0;shadow=0;strokeWidth=1;" vertex="1" parent="1">
          <mxGeometry x="1175" y="1000" width="170" height="350" as="geometry">
            <mxRectangle x="230" y="140" width="160" height="26" as="alternateBounds" />
          </mxGeometry>
        </mxCell>
        <mxCell id="G9mwLR_gxz6Jy6iitqx3-112" value="objectName: String" style="text;align=left;verticalAlign=top;spacingLeft=4;spacingRight=4;overflow=hidden;rotatable=0;points=[[0,0.5],[1,0.5]];portConstraint=eastwest;" vertex="1" parent="G9mwLR_gxz6Jy6iitqx3-111">
          <mxGeometry y="26" width="170" height="24" as="geometry" />
        </mxCell>
        <mxCell id="G9mwLR_gxz6Jy6iitqx3-113" value="objectAppearance: int" style="text;align=left;verticalAlign=top;spacingLeft=4;spacingRight=4;overflow=hidden;rotatable=0;points=[[0,0.5],[1,0.5]];portConstraint=eastwest;" vertex="1" parent="G9mwLR_gxz6Jy6iitqx3-111">
          <mxGeometry y="50" width="170" height="30" as="geometry" />
        </mxCell>
        <mxCell id="G9mwLR_gxz6Jy6iitqx3-114" value="xPosition: float" style="text;align=left;verticalAlign=top;spacingLeft=4;spacingRight=4;overflow=hidden;rotatable=0;points=[[0,0.5],[1,0.5]];portConstraint=eastwest;" vertex="1" parent="G9mwLR_gxz6Jy6iitqx3-111">
          <mxGeometry y="80" width="170" height="30" as="geometry" />
        </mxCell>
        <mxCell id="G9mwLR_gxz6Jy6iitqx3-115" value="yPosition: float" style="text;align=left;verticalAlign=top;spacingLeft=4;spacingRight=4;overflow=hidden;rotatable=0;points=[[0,0.5],[1,0.5]];portConstraint=eastwest;" vertex="1" parent="G9mwLR_gxz6Jy6iitqx3-111">
          <mxGeometry y="110" width="170" height="30" as="geometry" />
        </mxCell>
        <mxCell id="G9mwLR_gxz6Jy6iitqx3-116" value="dxPosition: float" style="text;align=left;verticalAlign=top;spacingLeft=4;spacingRight=4;overflow=hidden;rotatable=0;points=[[0,0.5],[1,0.5]];portConstraint=eastwest;" vertex="1" parent="G9mwLR_gxz6Jy6iitqx3-111">
          <mxGeometry y="140" width="170" height="30" as="geometry" />
        </mxCell>
        <mxCell id="G9mwLR_gxz6Jy6iitqx3-117" value="dyPosition: float" style="text;align=left;verticalAlign=top;spacingLeft=4;spacingRight=4;overflow=hidden;rotatable=0;points=[[0,0.5],[1,0.5]];portConstraint=eastwest;" vertex="1" parent="G9mwLR_gxz6Jy6iitqx3-111">
          <mxGeometry y="170" width="170" height="30" as="geometry" />
        </mxCell>
        <mxCell id="G9mwLR_gxz6Jy6iitqx3-118" value="" style="line;html=1;strokeWidth=1;align=left;verticalAlign=middle;spacingTop=-1;spacingLeft=3;spacingRight=3;rotatable=0;labelPosition=right;points=[];portConstraint=eastwest;" vertex="1" parent="G9mwLR_gxz6Jy6iitqx3-111">
          <mxGeometry y="200" width="170" height="10" as="geometry" />
        </mxCell>
        <mxCell id="G9mwLR_gxz6Jy6iitqx3-119" value="setObjectName(): void" style="text;align=left;verticalAlign=top;spacingLeft=4;spacingRight=4;overflow=hidden;rotatable=0;points=[[0,0.5],[1,0.5]];portConstraint=eastwest;" vertex="1" parent="G9mwLR_gxz6Jy6iitqx3-111">
          <mxGeometry y="210" width="170" height="30" as="geometry" />
        </mxCell>
        <mxCell id="G9mwLR_gxz6Jy6iitqx3-120" value="getObjectName(): void" style="text;align=left;verticalAlign=top;spacingLeft=4;spacingRight=4;overflow=hidden;rotatable=0;points=[[0,0.5],[1,0.5]];portConstraint=eastwest;" vertex="1" parent="G9mwLR_gxz6Jy6iitqx3-111">
          <mxGeometry y="240" width="170" height="30" as="geometry" />
        </mxCell>
        <mxCell id="G9mwLR_gxz6Jy6iitqx3-121" value="setObjectAppearance(): void" style="text;align=left;verticalAlign=top;spacingLeft=4;spacingRight=4;overflow=hidden;rotatable=0;points=[[0,0.5],[1,0.5]];portConstraint=eastwest;" vertex="1" parent="G9mwLR_gxz6Jy6iitqx3-111">
          <mxGeometry y="270" width="170" height="30" as="geometry" />
        </mxCell>
        <mxCell id="G9mwLR_gxz6Jy6iitqx3-122" value="getObjectApperance(): void" style="text;align=left;verticalAlign=top;spacingLeft=4;spacingRight=4;overflow=hidden;rotatable=0;points=[[0,0.5],[1,0.5]];portConstraint=eastwest;" vertex="1" parent="G9mwLR_gxz6Jy6iitqx3-111">
          <mxGeometry y="300" width="170" height="30" as="geometry" />
        </mxCell>
        <mxCell id="G9mwLR_gxz6Jy6iitqx3-123" value="Phoenix Blaster" style="swimlane;fontStyle=0;align=center;verticalAlign=top;childLayout=stackLayout;horizontal=1;startSize=26;horizontalStack=0;resizeParent=1;resizeLast=0;collapsible=1;marginBottom=0;rounded=0;shadow=0;strokeWidth=1;" vertex="1" parent="1">
          <mxGeometry x="1730" y="1998" width="90" height="70" as="geometry">
            <mxRectangle x="340" y="380" width="170" height="26" as="alternateBounds" />
          </mxGeometry>
        </mxCell>
        <mxCell id="G9mwLR_gxz6Jy6iitqx3-124" value="" style="line;html=1;strokeWidth=1;align=left;verticalAlign=middle;spacingTop=-1;spacingLeft=3;spacingRight=3;rotatable=0;labelPosition=right;points=[];portConstraint=eastwest;" vertex="1" parent="G9mwLR_gxz6Jy6iitqx3-123">
          <mxGeometry y="26" width="90" height="8" as="geometry" />
        </mxCell>
        <mxCell id="G9mwLR_gxz6Jy6iitqx3-125" value="Konkrét Egyedek" style="text;html=1;strokeColor=none;fillColor=none;align=center;verticalAlign=middle;whiteSpace=wrap;rounded=0;" vertex="1" parent="1">
          <mxGeometry x="1390" y="1975" width="140" height="20" as="geometry" />
        </mxCell>
        <mxCell id="G9mwLR_gxz6Jy6iitqx3-126" style="edgeStyle=orthogonalEdgeStyle;rounded=0;orthogonalLoop=1;jettySize=auto;html=1;exitX=0.5;exitY=0;exitDx=0;exitDy=0;" edge="1" parent="1" source="G9mwLR_gxz6Jy6iitqx3-127">
          <mxGeometry relative="1" as="geometry">
            <mxPoint x="1190" y="1340" as="targetPoint" />
          </mxGeometry>
        </mxCell>
        <mxCell id="G9mwLR_gxz6Jy6iitqx3-127" value="Projectile" style="swimlane;fontStyle=3;align=center;verticalAlign=top;childLayout=stackLayout;horizontal=1;startSize=26;horizontalStack=0;resizeParent=1;resizeLast=0;collapsible=1;marginBottom=0;rounded=0;shadow=0;strokeWidth=1;fillColor=#ffe6cc;strokeColor=#d79b00;" vertex="1" parent="1">
          <mxGeometry x="710" y="1560" width="180" height="90" as="geometry">
            <mxRectangle x="230" y="140" width="160" height="26" as="alternateBounds" />
          </mxGeometry>
        </mxCell>
        <mxCell id="G9mwLR_gxz6Jy6iitqx3-128" value="projectileType: int" style="text;align=left;verticalAlign=top;spacingLeft=4;spacingRight=4;overflow=hidden;rotatable=0;points=[[0,0.5],[1,0.5]];portConstraint=eastwest;rounded=0;shadow=0;html=0;" vertex="1" parent="G9mwLR_gxz6Jy6iitqx3-127">
          <mxGeometry y="26" width="180" height="26" as="geometry" />
        </mxCell>
        <mxCell id="G9mwLR_gxz6Jy6iitqx3-129" value="projectileSpeed(): void" style="text;align=left;verticalAlign=top;spacingLeft=4;spacingRight=4;overflow=hidden;rotatable=0;points=[[0,0.5],[1,0.5]];portConstraint=eastwest;" vertex="1" parent="G9mwLR_gxz6Jy6iitqx3-127">
          <mxGeometry y="52" width="180" height="26" as="geometry" />
        </mxCell>
        <mxCell id="G9mwLR_gxz6Jy6iitqx3-130" value="" style="line;html=1;strokeWidth=1;align=left;verticalAlign=middle;spacingTop=-1;spacingLeft=3;spacingRight=3;rotatable=0;labelPosition=right;points=[];portConstraint=eastwest;" vertex="1" parent="G9mwLR_gxz6Jy6iitqx3-127">
          <mxGeometry y="78" width="180" height="8" as="geometry" />
        </mxCell>
        <mxCell id="G9mwLR_gxz6Jy6iitqx3-131" value="&lt;b&gt;&lt;font style=&quot;font-size: 30px&quot;&gt;...&lt;/font&gt;&lt;/b&gt;" style="text;html=1;strokeColor=none;fillColor=none;align=center;verticalAlign=middle;whiteSpace=wrap;rounded=0;" vertex="1" parent="1">
          <mxGeometry x="1141" y="2050" width="76" height="20" as="geometry" />
        </mxCell>
        <mxCell id="G9mwLR_gxz6Jy6iitqx3-132" value="&lt;font style=&quot;font-size: 16px&quot;&gt;Külön menük lesznek nincs öröklés, mert nincs közös tulajdonság. &lt;br&gt;Metódussal váltunk állapotot -&amp;gt; join menu. És ekkor framet frissítunk. Easy peasy.&lt;/font&gt;" style="text;strokeColor=none;fillColor=none;html=1;fontSize=24;fontStyle=1;verticalAlign=middle;align=center;" vertex="1" parent="1">
          <mxGeometry x="1710" y="40" width="800" height="50" as="geometry" />
        </mxCell>
        <mxCell id="G9mwLR_gxz6Jy6iitqx3-133" style="edgeStyle=orthogonalEdgeStyle;rounded=0;orthogonalLoop=1;jettySize=auto;html=1;exitX=0.25;exitY=0;exitDx=0;exitDy=0;" edge="1" parent="1" source="G9mwLR_gxz6Jy6iitqx3-134">
          <mxGeometry relative="1" as="geometry">
            <mxPoint x="2720" y="1260" as="targetPoint" />
          </mxGeometry>
        </mxCell>
        <mxCell id="G9mwLR_gxz6Jy6iitqx3-134" value="GameplayState" style="swimlane;fontStyle=3;align=center;verticalAlign=top;childLayout=stackLayout;horizontal=1;startSize=26;horizontalStack=0;resizeParent=1;resizeLast=0;collapsible=1;marginBottom=0;rounded=0;shadow=0;strokeWidth=1;" vertex="1" parent="1">
          <mxGeometry x="2750" y="1396" width="190" height="136" as="geometry">
            <mxRectangle x="230" y="140" width="160" height="26" as="alternateBounds" />
          </mxGeometry>
        </mxCell>
        <mxCell id="G9mwLR_gxz6Jy6iitqx3-135" value="" style="line;html=1;strokeWidth=1;align=left;verticalAlign=middle;spacingTop=-1;spacingLeft=3;spacingRight=3;rotatable=0;labelPosition=right;points=[];portConstraint=eastwest;" vertex="1" parent="G9mwLR_gxz6Jy6iitqx3-134">
          <mxGeometry y="26" width="190" height="8" as="geometry" />
        </mxCell>
        <mxCell id="G9mwLR_gxz6Jy6iitqx3-136" value="GameObjects.... handled by &#xa;GameObjectHandler" style="text;align=left;verticalAlign=top;spacingLeft=4;spacingRight=4;overflow=hidden;rotatable=0;points=[[0,0.5],[1,0.5]];portConstraint=eastwest;rounded=0;shadow=0;html=0;fontStyle=1" vertex="1" parent="G9mwLR_gxz6Jy6iitqx3-134">
          <mxGeometry y="34" width="190" height="46" as="geometry" />
        </mxCell>
        <mxCell id="G9mwLR_gxz6Jy6iitqx3-137" value="" style="line;html=1;strokeWidth=1;align=left;verticalAlign=middle;spacingTop=-1;spacingLeft=3;spacingRight=3;rotatable=0;labelPosition=right;points=[];portConstraint=eastwest;" vertex="1" parent="G9mwLR_gxz6Jy6iitqx3-134">
          <mxGeometry y="80" width="190" height="10" as="geometry" />
        </mxCell>
        <mxCell id="G9mwLR_gxz6Jy6iitqx3-138" value="Player, map létrehozása  itt" style="text;align=left;verticalAlign=top;spacingLeft=4;spacingRight=4;overflow=hidden;rotatable=0;points=[[0,0.5],[1,0.5]];portConstraint=eastwest;rounded=0;shadow=0;html=0;fontStyle=1" vertex="1" parent="G9mwLR_gxz6Jy6iitqx3-134">
          <mxGeometry y="90" width="190" height="46" as="geometry" />
        </mxCell>
        <mxCell id="G9mwLR_gxz6Jy6iitqx3-139" value="PauseMenu" style="swimlane;fontStyle=3;align=center;verticalAlign=top;childLayout=stackLayout;horizontal=1;startSize=26;horizontalStack=0;resizeParent=1;resizeLast=0;collapsible=1;marginBottom=0;rounded=0;shadow=0;strokeWidth=1;fillColor=#e1d5e7;strokeColor=#9673a6;" vertex="1" parent="1">
          <mxGeometry x="2750" y="1544" width="190" height="216" as="geometry">
            <mxRectangle x="230" y="140" width="160" height="26" as="alternateBounds" />
          </mxGeometry>
        </mxCell>
        <mxCell id="G9mwLR_gxz6Jy6iitqx3-140" value="inGameMenu: JPanel" style="text;align=left;verticalAlign=top;spacingLeft=4;spacingRight=4;overflow=hidden;rotatable=0;points=[[0,0.5],[1,0.5]];portConstraint=eastwest;" vertex="1" parent="G9mwLR_gxz6Jy6iitqx3-139">
          <mxGeometry y="26" width="190" height="26" as="geometry" />
        </mxCell>
        <mxCell id="G9mwLR_gxz6Jy6iitqx3-141" value="inGameQuit: JButton" style="text;align=left;verticalAlign=top;spacingLeft=4;spacingRight=4;overflow=hidden;rotatable=0;points=[[0,0.5],[1,0.5]];portConstraint=eastwest;" vertex="1" parent="G9mwLR_gxz6Jy6iitqx3-139">
          <mxGeometry y="52" width="190" height="26" as="geometry" />
        </mxCell>
        <mxCell id="G9mwLR_gxz6Jy6iitqx3-142" value="pauseMenuEnabled: boolean" style="text;align=left;verticalAlign=top;spacingLeft=4;spacingRight=4;overflow=hidden;rotatable=0;points=[[0,0.5],[1,0.5]];portConstraint=eastwest;" vertex="1" parent="G9mwLR_gxz6Jy6iitqx3-139">
          <mxGeometry y="78" width="190" height="26" as="geometry" />
        </mxCell>
        <mxCell id="G9mwLR_gxz6Jy6iitqx3-143" value="" style="line;html=1;strokeWidth=1;align=left;verticalAlign=middle;spacingTop=-1;spacingLeft=3;spacingRight=3;rotatable=0;labelPosition=right;points=[];portConstraint=eastwest;" vertex="1" parent="G9mwLR_gxz6Jy6iitqx3-139">
          <mxGeometry y="104" width="190" height="8" as="geometry" />
        </mxCell>
        <mxCell id="G9mwLR_gxz6Jy6iitqx3-144" value="return(): void" style="text;align=left;verticalAlign=top;spacingLeft=4;spacingRight=4;overflow=hidden;rotatable=0;points=[[0,0.5],[1,0.5]];portConstraint=eastwest;rounded=0;shadow=0;html=0;" vertex="1" parent="G9mwLR_gxz6Jy6iitqx3-139">
          <mxGeometry y="112" width="190" height="26" as="geometry" />
        </mxCell>
        <mxCell id="G9mwLR_gxz6Jy6iitqx3-145" value="quitToMenu(): void" style="text;align=left;verticalAlign=top;spacingLeft=4;spacingRight=4;overflow=hidden;rotatable=0;points=[[0,0.5],[1,0.5]];portConstraint=eastwest;rounded=0;shadow=0;html=0;" vertex="1" parent="G9mwLR_gxz6Jy6iitqx3-139">
          <mxGeometry y="138" width="190" height="26" as="geometry" />
        </mxCell>
        <mxCell id="G9mwLR_gxz6Jy6iitqx3-146" value="showPauseMenu(): void" style="text;align=left;verticalAlign=top;spacingLeft=4;spacingRight=4;overflow=hidden;rotatable=0;points=[[0,0.5],[1,0.5]];portConstraint=eastwest;" vertex="1" parent="G9mwLR_gxz6Jy6iitqx3-139">
          <mxGeometry y="164" width="190" height="26" as="geometry" />
        </mxCell>
        <mxCell id="G9mwLR_gxz6Jy6iitqx3-147" value="hidePauseMenu(): void" style="text;align=left;verticalAlign=top;spacingLeft=4;spacingRight=4;overflow=hidden;rotatable=0;points=[[0,0.5],[1,0.5]];portConstraint=eastwest;" vertex="1" parent="G9mwLR_gxz6Jy6iitqx3-139">
          <mxGeometry y="190" width="190" height="26" as="geometry" />
        </mxCell>
        <mxCell id="G9mwLR_gxz6Jy6iitqx3-148" style="edgeStyle=orthogonalEdgeStyle;rounded=0;orthogonalLoop=1;jettySize=auto;html=1;exitX=0;exitY=0.5;exitDx=0;exitDy=0;" edge="1" parent="1" source="G9mwLR_gxz6Jy6iitqx3-72">
          <mxGeometry relative="1" as="geometry">
            <mxPoint x="1332" y="1299" as="sourcePoint" />
            <mxPoint x="1210" y="1340" as="targetPoint" />
            <Array as="points">
              <mxPoint x="950" y="1619" />
              <mxPoint x="930" y="1619" />
              <mxPoint x="930" y="1520" />
              <mxPoint x="1210" y="1520" />
            </Array>
          </mxGeometry>
        </mxCell>
        <mxCell id="G9mwLR_gxz6Jy6iitqx3-149" value="MainMenu" style="swimlane;fontStyle=1;align=center;verticalAlign=top;childLayout=stackLayout;horizontal=1;startSize=26;horizontalStack=0;resizeParent=1;resizeParentMax=0;resizeLast=0;collapsible=1;marginBottom=0;strokeColor=none;fillColor=#66B2FF;" vertex="1" collapsed="1" parent="1">
          <mxGeometry x="2470" y="280" width="90" height="26" as="geometry">
            <mxRectangle x="1020" y="368" width="190" height="34" as="alternateBounds" />
          </mxGeometry>
        </mxCell>
        <mxCell id="G9mwLR_gxz6Jy6iitqx3-150" value="Map" style="swimlane;fontStyle=3;align=center;verticalAlign=top;childLayout=stackLayout;horizontal=1;startSize=26;horizontalStack=0;resizeParent=1;resizeLast=0;collapsible=1;marginBottom=0;rounded=0;shadow=0;strokeWidth=1;fillColor=#008a00;strokeColor=#005700;fontColor=#ffffff;" vertex="1" parent="1">
          <mxGeometry x="1632.5" y="1380" width="202" height="80" as="geometry">
            <mxRectangle x="230" y="140" width="160" height="26" as="alternateBounds" />
          </mxGeometry>
        </mxCell>
        <mxCell id="G9mwLR_gxz6Jy6iitqx3-151" value="backgroundMapImage: ImageIcon" style="text;align=left;verticalAlign=top;spacingLeft=4;spacingRight=4;overflow=hidden;rotatable=0;points=[[0,0.5],[1,0.5]];portConstraint=eastwest;" vertex="1" parent="G9mwLR_gxz6Jy6iitqx3-150">
          <mxGeometry y="26" width="202" height="26" as="geometry" />
        </mxCell>
        <mxCell id="G9mwLR_gxz6Jy6iitqx3-152" value="Tiles: TileMap" style="text;align=left;verticalAlign=top;spacingLeft=4;spacingRight=4;overflow=hidden;rotatable=0;points=[[0,0.5],[1,0.5]];portConstraint=eastwest;" vertex="1" parent="G9mwLR_gxz6Jy6iitqx3-150">
          <mxGeometry y="52" width="202" height="26" as="geometry" />
        </mxCell>
        <mxCell id="G9mwLR_gxz6Jy6iitqx3-153" value="Előre definiált mapok lesznek, &#xa;amiket majd betöltünk. Még &#xa;nézem, hogyan lehet megoldani.&#xa;Pl. .txt fájlból beolvasni stb." style="text;strokeColor=none;fillColor=none;align=left;verticalAlign=top;spacingLeft=4;spacingRight=4;overflow=hidden;rotatable=0;points=[[0,0.5],[1,0.5]];portConstraint=eastwest;" vertex="1" parent="1">
          <mxGeometry x="1637.25" y="1280" width="192.5" height="80" as="geometry" />
        </mxCell>
        <mxCell id="G9mwLR_gxz6Jy6iitqx3-154" value="NETWORK?&#xa;A Start esetén létrehozunk egy sessiont.&#xa;Join esetén csatlakozunk egy meglévő sessionhöz.&#xa;És a sessionnek kéne létrehoznia a Game objektumot &#xa;a hozzárendelésekkel player1, player2 stb.?&#xa;&#xa;Vagy&#xa;Main függvényben létrehozunk egy Application típust. &#xa;Megy a menüben navigálás.&#xa;&#xa;Start esetén jön létre egy Game objektum és a session &#xa;ezzel párhuzamosan indul el --  tudunk csatlakozni.&#xa;&#xa;Vagy előre létrehozunk mindent? &#xa;Az nem segít, hogy Unityben ezzel nem kellett foglalkozni :D" style="text;strokeColor=#b85450;align=left;verticalAlign=top;spacingLeft=4;spacingRight=4;overflow=hidden;rotatable=0;points=[[0,0.5],[1,0.5]];portConstraint=eastwest;fillColor=#f8cecc;fontStyle=0" vertex="1" parent="1">
          <mxGeometry x="60" y="22" width="340" height="220" as="geometry" />
        </mxCell>
        <mxCell id="G9mwLR_gxz6Jy6iitqx3-155" value="State Machine Diagram..." style="text;strokeColor=none;fillColor=none;html=1;fontSize=24;fontStyle=1;verticalAlign=middle;align=left;" vertex="1" parent="1">
          <mxGeometry x="2720" y="20" width="340" height="66" as="geometry" />
        </mxCell>
        <mxCell id="G9mwLR_gxz6Jy6iitqx3-156" value="Game object típusú egyedeket kezeli, pozíció, stb. Minden egyes típusnál (weapon, projectile) más más függvényt definiálunk.&amp;nbsp;" style="text;html=1;strokeColor=none;fillColor=none;align=center;verticalAlign=middle;whiteSpace=wrap;rounded=0;" vertex="1" parent="1">
          <mxGeometry x="1640" y="1020" width="210" height="70" as="geometry" />
        </mxCell>
        <mxCell id="G9mwLR_gxz6Jy6iitqx3-157" value="GameObjectHandler" style="swimlane;fontStyle=3;align=center;verticalAlign=top;childLayout=stackLayout;horizontal=1;startSize=26;horizontalStack=0;resizeParent=1;resizeLast=0;collapsible=1;marginBottom=0;rounded=0;shadow=0;strokeWidth=1;" vertex="1" parent="1">
          <mxGeometry x="1448" y="1020" width="170" height="210" as="geometry">
            <mxRectangle x="230" y="140" width="160" height="26" as="alternateBounds" />
          </mxGeometry>
        </mxCell>
        <mxCell id="G9mwLR_gxz6Jy6iitqx3-158" value="Entity: GameObject" style="text;align=left;verticalAlign=top;spacingLeft=4;spacingRight=4;overflow=hidden;rotatable=0;points=[[0,0.5],[1,0.5]];portConstraint=eastwest;" vertex="1" parent="G9mwLR_gxz6Jy6iitqx3-157">
          <mxGeometry y="26" width="170" height="24" as="geometry" />
        </mxCell>
        <mxCell id="G9mwLR_gxz6Jy6iitqx3-159" value="objectAppearance: int" style="text;align=left;verticalAlign=top;spacingLeft=4;spacingRight=4;overflow=hidden;rotatable=0;points=[[0,0.5],[1,0.5]];portConstraint=eastwest;" vertex="1" parent="G9mwLR_gxz6Jy6iitqx3-157">
          <mxGeometry y="50" width="170" height="30" as="geometry" />
        </mxCell>
        <mxCell id="G9mwLR_gxz6Jy6iitqx3-160" value="xPosition: float" style="text;align=left;verticalAlign=top;spacingLeft=4;spacingRight=4;overflow=hidden;rotatable=0;points=[[0,0.5],[1,0.5]];portConstraint=eastwest;" vertex="1" parent="G9mwLR_gxz6Jy6iitqx3-157">
          <mxGeometry y="80" width="170" height="30" as="geometry" />
        </mxCell>
        <mxCell id="G9mwLR_gxz6Jy6iitqx3-161" value="yPosition: float" style="text;align=left;verticalAlign=top;spacingLeft=4;spacingRight=4;overflow=hidden;rotatable=0;points=[[0,0.5],[1,0.5]];portConstraint=eastwest;" vertex="1" parent="G9mwLR_gxz6Jy6iitqx3-157">
          <mxGeometry y="110" width="170" height="30" as="geometry" />
        </mxCell>
        <mxCell id="G9mwLR_gxz6Jy6iitqx3-162" value="" style="line;html=1;strokeWidth=1;align=left;verticalAlign=middle;spacingTop=-1;spacingLeft=3;spacingRight=3;rotatable=0;labelPosition=right;points=[];portConstraint=eastwest;" vertex="1" parent="G9mwLR_gxz6Jy6iitqx3-157">
          <mxGeometry y="140" width="170" height="10" as="geometry" />
        </mxCell>
        <mxCell id="G9mwLR_gxz6Jy6iitqx3-163" value="paint(): void" style="text;align=left;verticalAlign=top;spacingLeft=4;spacingRight=4;overflow=hidden;rotatable=0;points=[[0,0.5],[1,0.5]];portConstraint=eastwest;" vertex="1" parent="G9mwLR_gxz6Jy6iitqx3-157">
          <mxGeometry y="150" width="170" height="30" as="geometry" />
        </mxCell>
        <mxCell id="G9mwLR_gxz6Jy6iitqx3-164" value="spawn(): void" style="text;align=left;verticalAlign=top;spacingLeft=4;spacingRight=4;overflow=hidden;rotatable=0;points=[[0,0.5],[1,0.5]];portConstraint=eastwest;" vertex="1" parent="G9mwLR_gxz6Jy6iitqx3-157">
          <mxGeometry y="180" width="170" height="30" as="geometry" />
        </mxCell>
        <mxCell id="G9mwLR_gxz6Jy6iitqx3-165" value="" style="endArrow=block;dashed=1;endFill=0;endSize=12;html=1;exitX=0.463;exitY=1.077;exitDx=0;exitDy=0;exitPerimeter=0;entryX=0.5;entryY=0;entryDx=0;entryDy=0;" edge="1" parent="1" source="G9mwLR_gxz6Jy6iitqx3-80" target="G9mwLR_gxz6Jy6iitqx3-13">
          <mxGeometry width="160" relative="1" as="geometry">
            <mxPoint x="1060" y="1830" as="sourcePoint" />
            <mxPoint x="1190" y="1800" as="targetPoint" />
          </mxGeometry>
        </mxCell>
        <mxCell id="G9mwLR_gxz6Jy6iitqx3-166" value="" style="endArrow=block;dashed=1;endFill=0;endSize=12;html=1;exitX=0.463;exitY=1.077;exitDx=0;exitDy=0;exitPerimeter=0;entryX=0.384;entryY=0.009;entryDx=0;entryDy=0;entryPerimeter=0;" edge="1" parent="1" target="G9mwLR_gxz6Jy6iitqx3-15">
          <mxGeometry width="160" relative="1" as="geometry">
            <mxPoint x="1268.9899999999998" y="1650.0020000000004" as="sourcePoint" />
            <mxPoint x="1251.02" y="1731" as="targetPoint" />
          </mxGeometry>
        </mxCell>
        <mxCell id="G9mwLR_gxz6Jy6iitqx3-167" value="" style="endArrow=block;dashed=1;endFill=0;endSize=12;html=1;entryX=0.382;entryY=0;entryDx=0;entryDy=0;entryPerimeter=0;exitX=0.978;exitY=1.115;exitDx=0;exitDy=0;exitPerimeter=0;" edge="1" parent="1" source="G9mwLR_gxz6Jy6iitqx3-89" target="G9mwLR_gxz6Jy6iitqx3-17">
          <mxGeometry width="160" relative="1" as="geometry">
            <mxPoint x="1590" y="1720" as="sourcePoint" />
            <mxPoint x="1590" y="1969.9999999999998" as="targetPoint" />
          </mxGeometry>
        </mxCell>
        <mxCell id="G9mwLR_gxz6Jy6iitqx3-168" value="ESC lenyomására jelenik meg." style="text;strokeColor=none;fillColor=none;align=left;verticalAlign=top;spacingLeft=4;spacingRight=4;overflow=hidden;rotatable=0;points=[[0,0.5],[1,0.5]];portConstraint=eastwest;" vertex="1" parent="1">
          <mxGeometry x="2750" y="1774" width="170" height="90" as="geometry" />
        </mxCell>
        <mxCell id="G9mwLR_gxz6Jy6iitqx3-169" value="Game" style="swimlane;fontStyle=3;align=center;verticalAlign=top;childLayout=stackLayout;horizontal=1;startSize=26;horizontalStack=0;resizeParent=1;resizeLast=0;collapsible=1;marginBottom=0;rounded=0;shadow=0;strokeWidth=1;" vertex="1" parent="1">
          <mxGeometry x="1960" y="1090" width="200" height="90" as="geometry">
            <mxRectangle x="230" y="140" width="160" height="26" as="alternateBounds" />
          </mxGeometry>
        </mxCell>
        <mxCell id="G9mwLR_gxz6Jy6iitqx3-170" value="duelingFates: JFrame" style="text;align=left;verticalAlign=top;spacingLeft=4;spacingRight=4;overflow=hidden;rotatable=0;points=[[0,0.5],[1,0.5]];portConstraint=eastwest;rounded=0;shadow=0;html=0;" vertex="1" parent="G9mwLR_gxz6Jy6iitqx3-169">
          <mxGeometry y="26" width="200" height="26" as="geometry" />
        </mxCell>
        <mxCell id="G9mwLR_gxz6Jy6iitqx3-171" value="" style="line;html=1;strokeWidth=1;align=left;verticalAlign=middle;spacingTop=-1;spacingLeft=3;spacingRight=3;rotatable=0;labelPosition=right;points=[];portConstraint=eastwest;" vertex="1" parent="G9mwLR_gxz6Jy6iitqx3-169">
          <mxGeometry y="52" width="200" height="8" as="geometry" />
        </mxCell>
        <mxCell id="G9mwLR_gxz6Jy6iitqx3-172" value="GameRenderer" style="swimlane;fontStyle=3;align=center;verticalAlign=top;childLayout=stackLayout;horizontal=1;startSize=26;horizontalStack=0;resizeParent=1;resizeLast=0;collapsible=1;marginBottom=0;rounded=0;shadow=0;strokeWidth=1;" vertex="1" parent="1">
          <mxGeometry x="2720" y="792" width="180" height="138" as="geometry">
            <mxRectangle x="230" y="140" width="160" height="26" as="alternateBounds" />
          </mxGeometry>
        </mxCell>
        <mxCell id="G9mwLR_gxz6Jy6iitqx3-173" value="mapTiles: ArrayList" style="text;align=left;verticalAlign=top;spacingLeft=4;spacingRight=4;overflow=hidden;rotatable=0;points=[[0,0.5],[1,0.5]];portConstraint=eastwest;rounded=0;shadow=0;html=0;" vertex="1" parent="G9mwLR_gxz6Jy6iitqx3-172">
          <mxGeometry y="26" width="180" height="26" as="geometry" />
        </mxCell>
        <mxCell id="G9mwLR_gxz6Jy6iitqx3-174" value="gameObjectEntites: ArrayList" style="text;align=left;verticalAlign=top;spacingLeft=4;spacingRight=4;overflow=hidden;rotatable=0;points=[[0,0.5],[1,0.5]];portConstraint=eastwest;rounded=0;shadow=0;html=0;" vertex="1" parent="G9mwLR_gxz6Jy6iitqx3-172">
          <mxGeometry y="52" width="180" height="26" as="geometry" />
        </mxCell>
        <mxCell id="G9mwLR_gxz6Jy6iitqx3-175" value="" style="line;html=1;strokeWidth=1;align=left;verticalAlign=middle;spacingTop=-1;spacingLeft=3;spacingRight=3;rotatable=0;labelPosition=right;points=[];portConstraint=eastwest;" vertex="1" parent="G9mwLR_gxz6Jy6iitqx3-172">
          <mxGeometry y="78" width="180" height="8" as="geometry" />
        </mxCell>
        <mxCell id="G9mwLR_gxz6Jy6iitqx3-176" value="renderMap():void" style="text;align=left;verticalAlign=top;spacingLeft=4;spacingRight=4;overflow=hidden;rotatable=0;points=[[0,0.5],[1,0.5]];portConstraint=eastwest;" vertex="1" parent="G9mwLR_gxz6Jy6iitqx3-172">
          <mxGeometry y="86" width="180" height="26" as="geometry" />
        </mxCell>
        <mxCell id="G9mwLR_gxz6Jy6iitqx3-177" value="renderGame():void" style="text;align=left;verticalAlign=top;spacingLeft=4;spacingRight=4;overflow=hidden;rotatable=0;points=[[0,0.5],[1,0.5]];portConstraint=eastwest;" vertex="1" parent="G9mwLR_gxz6Jy6iitqx3-172">
          <mxGeometry y="112" width="180" height="26" as="geometry" />
        </mxCell>
        <mxCell id="G9mwLR_gxz6Jy6iitqx3-178" value="ArrayList mérete változhat, a sima array-el szemben, ahol ott újat kellene létrehozni" style="text;html=1;strokeColor=none;fillColor=none;align=center;verticalAlign=middle;whiteSpace=wrap;rounded=0;" vertex="1" parent="1">
          <mxGeometry x="2960" y="792" width="210" height="70" as="geometry" />
        </mxCell>
        <mxCell id="G9mwLR_gxz6Jy6iitqx3-179" style="edgeStyle=orthogonalEdgeStyle;rounded=0;orthogonalLoop=1;jettySize=auto;html=1;exitX=0.5;exitY=0;exitDx=0;exitDy=0;" edge="1" parent="1" source="G9mwLR_gxz6Jy6iitqx3-180">
          <mxGeometry relative="1" as="geometry">
            <mxPoint x="2660" y="1260" as="targetPoint" />
            <Array as="points">
              <mxPoint x="2660" y="1396" />
            </Array>
          </mxGeometry>
        </mxCell>
        <mxCell id="G9mwLR_gxz6Jy6iitqx3-180" value="MainMenuState" style="swimlane;fontStyle=3;align=center;verticalAlign=top;childLayout=stackLayout;horizontal=1;startSize=26;horizontalStack=0;resizeParent=1;resizeLast=0;collapsible=1;marginBottom=0;rounded=0;shadow=0;strokeWidth=1;" vertex="1" parent="1">
          <mxGeometry x="2550" y="1396" width="180" height="268" as="geometry">
            <mxRectangle x="230" y="140" width="160" height="26" as="alternateBounds" />
          </mxGeometry>
        </mxCell>
        <mxCell id="G9mwLR_gxz6Jy6iitqx3-181" value="buttonQuit: JButton" style="text;align=left;verticalAlign=top;spacingLeft=4;spacingRight=4;overflow=hidden;rotatable=0;points=[[0,0.5],[1,0.5]];portConstraint=eastwest;" vertex="1" parent="G9mwLR_gxz6Jy6iitqx3-180">
          <mxGeometry y="26" width="180" height="26" as="geometry" />
        </mxCell>
        <mxCell id="G9mwLR_gxz6Jy6iitqx3-182" value="buttonSettings: JButton" style="text;align=left;verticalAlign=top;spacingLeft=4;spacingRight=4;overflow=hidden;rotatable=0;points=[[0,0.5],[1,0.5]];portConstraint=eastwest;" vertex="1" parent="G9mwLR_gxz6Jy6iitqx3-180">
          <mxGeometry y="52" width="180" height="26" as="geometry" />
        </mxCell>
        <mxCell id="G9mwLR_gxz6Jy6iitqx3-183" value="buttonHost: JButton" style="text;align=left;verticalAlign=top;spacingLeft=4;spacingRight=4;overflow=hidden;rotatable=0;points=[[0,0.5],[1,0.5]];portConstraint=eastwest;" vertex="1" parent="G9mwLR_gxz6Jy6iitqx3-180">
          <mxGeometry y="78" width="180" height="26" as="geometry" />
        </mxCell>
        <mxCell id="G9mwLR_gxz6Jy6iitqx3-184" value="buttonJoin: JButton" style="text;align=left;verticalAlign=top;spacingLeft=4;spacingRight=4;overflow=hidden;rotatable=0;points=[[0,0.5],[1,0.5]];portConstraint=eastwest;" vertex="1" parent="G9mwLR_gxz6Jy6iitqx3-180">
          <mxGeometry y="104" width="180" height="26" as="geometry" />
        </mxCell>
        <mxCell id="G9mwLR_gxz6Jy6iitqx3-185" value="logoImage: ImageIcon" style="text;align=left;verticalAlign=top;spacingLeft=4;spacingRight=4;overflow=hidden;rotatable=0;points=[[0,0.5],[1,0.5]];portConstraint=eastwest;" vertex="1" parent="G9mwLR_gxz6Jy6iitqx3-180">
          <mxGeometry y="130" width="180" height="26" as="geometry" />
        </mxCell>
        <mxCell id="G9mwLR_gxz6Jy6iitqx3-186" value="backgroundImage: ImageIcon" style="text;align=left;verticalAlign=top;spacingLeft=4;spacingRight=4;overflow=hidden;rotatable=0;points=[[0,0.5],[1,0.5]];portConstraint=eastwest;" vertex="1" parent="G9mwLR_gxz6Jy6iitqx3-180">
          <mxGeometry y="156" width="180" height="26" as="geometry" />
        </mxCell>
        <mxCell id="G9mwLR_gxz6Jy6iitqx3-187" value="mainMenu: JFrame" style="text;align=left;verticalAlign=top;spacingLeft=4;spacingRight=4;overflow=hidden;rotatable=0;points=[[0,0.5],[1,0.5]];portConstraint=eastwest;" vertex="1" parent="G9mwLR_gxz6Jy6iitqx3-180">
          <mxGeometry y="182" width="180" height="26" as="geometry" />
        </mxCell>
        <mxCell id="G9mwLR_gxz6Jy6iitqx3-188" value="" style="line;html=1;strokeWidth=1;align=left;verticalAlign=middle;spacingTop=-1;spacingLeft=3;spacingRight=3;rotatable=0;labelPosition=right;points=[];portConstraint=eastwest;" vertex="1" parent="G9mwLR_gxz6Jy6iitqx3-180">
          <mxGeometry y="208" width="180" height="8" as="geometry" />
        </mxCell>
        <mxCell id="G9mwLR_gxz6Jy6iitqx3-189" value="ABSTRACT GameState" style="swimlane;fontStyle=3;align=center;verticalAlign=top;childLayout=stackLayout;horizontal=1;startSize=26;horizontalStack=0;resizeParent=1;resizeLast=0;collapsible=1;marginBottom=0;rounded=0;shadow=0;strokeWidth=1;" vertex="1" parent="1">
          <mxGeometry x="2580" y="1150" width="180" height="112" as="geometry">
            <mxRectangle x="230" y="140" width="160" height="26" as="alternateBounds" />
          </mxGeometry>
        </mxCell>
        <mxCell id="G9mwLR_gxz6Jy6iitqx3-190" value="a" style="text;align=left;verticalAlign=top;spacingLeft=4;spacingRight=4;overflow=hidden;rotatable=0;points=[[0,0.5],[1,0.5]];portConstraint=eastwest;rounded=0;shadow=0;html=0;" vertex="1" parent="G9mwLR_gxz6Jy6iitqx3-189">
          <mxGeometry y="26" width="180" height="26" as="geometry" />
        </mxCell>
        <mxCell id="G9mwLR_gxz6Jy6iitqx3-191" value="" style="line;html=1;strokeWidth=1;align=left;verticalAlign=middle;spacingTop=-1;spacingLeft=3;spacingRight=3;rotatable=0;labelPosition=right;points=[];portConstraint=eastwest;" vertex="1" parent="G9mwLR_gxz6Jy6iitqx3-189">
          <mxGeometry y="52" width="180" height="8" as="geometry" />
        </mxCell>
        <mxCell id="G9mwLR_gxz6Jy6iitqx3-192" value="draw():void" style="text;align=left;verticalAlign=top;spacingLeft=4;spacingRight=4;overflow=hidden;rotatable=0;points=[[0,0.5],[1,0.5]];portConstraint=eastwest;" vertex="1" parent="G9mwLR_gxz6Jy6iitqx3-189">
          <mxGeometry y="60" width="180" height="26" as="geometry" />
        </mxCell>
        <mxCell id="G9mwLR_gxz6Jy6iitqx3-193" value="update():void" style="text;align=left;verticalAlign=top;spacingLeft=4;spacingRight=4;overflow=hidden;rotatable=0;points=[[0,0.5],[1,0.5]];portConstraint=eastwest;" vertex="1" parent="G9mwLR_gxz6Jy6iitqx3-189">
          <mxGeometry y="86" width="180" height="26" as="geometry" />
        </mxCell>
        <mxCell id="G9mwLR_gxz6Jy6iitqx3-194" value="Gamplay fizikai részét kezelő &#xa;blokk: collision detection, moving,&#xa;firing, dying, spawning (players and &#xa;consumables, projectiles)" style="text;align=center;fontStyle=1;verticalAlign=middle;spacingLeft=3;spacingRight=3;strokeColor=none;rotatable=0;points=[[0,0.5],[1,0.5]];portConstraint=eastwest;fillColor=#ffffff;gradientColor=none;" vertex="1" parent="1">
          <mxGeometry x="680" y="870" width="255" height="80" as="geometry" />
        </mxCell>
        <mxCell id="G9mwLR_gxz6Jy6iitqx3-195" value="" style="shape=image;verticalLabelPosition=bottom;labelBackgroundColor=#ffffff;verticalAlign=top;aspect=fixed;imageAspect=0;image=http://blog.nuclex-games.com/wp-content/uploads/pages/game-states/SimpleGameStates.svg;" vertex="1" parent="1">
          <mxGeometry x="2830" y="86" width="430.77" height="280" as="geometry" />
        </mxCell>
        <mxCell id="G9mwLR_gxz6Jy6iitqx3-196" style="edgeStyle=orthogonalEdgeStyle;rounded=0;orthogonalLoop=1;jettySize=auto;html=1;exitX=0.5;exitY=0;exitDx=0;exitDy=0;" edge="1" parent="1" source="G9mwLR_gxz6Jy6iitqx3-197">
          <mxGeometry relative="1" as="geometry">
            <mxPoint x="2760" y="1270" as="targetPoint" />
            <Array as="points">
              <mxPoint x="3070" y="1310" />
              <mxPoint x="2760" y="1310" />
            </Array>
          </mxGeometry>
        </mxCell>
        <mxCell id="G9mwLR_gxz6Jy6iitqx3-197" value="ScoreState" style="swimlane;fontStyle=3;align=center;verticalAlign=top;childLayout=stackLayout;horizontal=1;startSize=26;horizontalStack=0;resizeParent=1;resizeLast=0;collapsible=1;marginBottom=0;rounded=0;shadow=0;strokeWidth=1;" vertex="1" parent="1">
          <mxGeometry x="2985" y="1396" width="180" height="94" as="geometry">
            <mxRectangle x="230" y="140" width="160" height="26" as="alternateBounds" />
          </mxGeometry>
        </mxCell>
        <mxCell id="G9mwLR_gxz6Jy6iitqx3-198" value="scoremenu: ScoreTable" style="text;align=left;verticalAlign=top;spacingLeft=4;spacingRight=4;overflow=hidden;rotatable=0;points=[[0,0.5],[1,0.5]];portConstraint=eastwest;rounded=0;shadow=0;html=0;fillColor=#0050ef;strokeColor=#001DBC;fontColor=#ffffff;" vertex="1" parent="G9mwLR_gxz6Jy6iitqx3-197">
          <mxGeometry y="26" width="180" height="26" as="geometry" />
        </mxCell>
        <mxCell id="G9mwLR_gxz6Jy6iitqx3-199" value="" style="line;html=1;strokeWidth=1;align=left;verticalAlign=middle;spacingTop=-1;spacingLeft=3;spacingRight=3;rotatable=0;labelPosition=right;points=[];portConstraint=eastwest;" vertex="1" parent="G9mwLR_gxz6Jy6iitqx3-197">
          <mxGeometry y="52" width="180" height="8" as="geometry" />
        </mxCell>
        <mxCell id="G9mwLR_gxz6Jy6iitqx3-200" style="edgeStyle=orthogonalEdgeStyle;rounded=0;orthogonalLoop=1;jettySize=auto;html=1;exitX=0.75;exitY=0;exitDx=0;exitDy=0;" edge="1" parent="1" source="G9mwLR_gxz6Jy6iitqx3-201">
          <mxGeometry relative="1" as="geometry">
            <mxPoint x="2610" y="1270" as="targetPoint" />
            <Array as="points">
              <mxPoint x="2485" y="1310" />
              <mxPoint x="2610" y="1310" />
            </Array>
          </mxGeometry>
        </mxCell>
        <mxCell id="G9mwLR_gxz6Jy6iitqx3-201" value="JoinState" style="swimlane;fontStyle=3;align=center;verticalAlign=top;childLayout=stackLayout;horizontal=1;startSize=26;horizontalStack=0;resizeParent=1;resizeLast=0;collapsible=1;marginBottom=0;rounded=0;shadow=0;strokeWidth=1;" vertex="1" parent="1">
          <mxGeometry x="2350" y="1396" width="180" height="216" as="geometry">
            <mxRectangle x="230" y="140" width="160" height="26" as="alternateBounds" />
          </mxGeometry>
        </mxCell>
        <mxCell id="G9mwLR_gxz6Jy6iitqx3-202" value="buttonJoin: JButton" style="text;align=left;verticalAlign=top;spacingLeft=4;spacingRight=4;overflow=hidden;rotatable=0;points=[[0,0.5],[1,0.5]];portConstraint=eastwest;" vertex="1" parent="G9mwLR_gxz6Jy6iitqx3-201">
          <mxGeometry y="26" width="180" height="26" as="geometry" />
        </mxCell>
        <mxCell id="G9mwLR_gxz6Jy6iitqx3-203" value="buttonBackToMain: JButton" style="text;align=left;verticalAlign=top;spacingLeft=4;spacingRight=4;overflow=hidden;rotatable=0;points=[[0,0.5],[1,0.5]];portConstraint=eastwest;" vertex="1" parent="G9mwLR_gxz6Jy6iitqx3-201">
          <mxGeometry y="52" width="180" height="26" as="geometry" />
        </mxCell>
        <mxCell id="G9mwLR_gxz6Jy6iitqx3-204" value="inputServerPassword: JTextField" style="text;align=left;verticalAlign=top;spacingLeft=4;spacingRight=4;overflow=hidden;rotatable=0;points=[[0,0.5],[1,0.5]];portConstraint=eastwest;" vertex="1" parent="G9mwLR_gxz6Jy6iitqx3-201">
          <mxGeometry y="78" width="180" height="26" as="geometry" />
        </mxCell>
        <mxCell id="G9mwLR_gxz6Jy6iitqx3-205" value="inputServerIPAddress: JTextField" style="text;align=left;verticalAlign=top;spacingLeft=4;spacingRight=4;overflow=hidden;rotatable=0;points=[[0,0.5],[1,0.5]];portConstraint=eastwest;" vertex="1" parent="G9mwLR_gxz6Jy6iitqx3-201">
          <mxGeometry y="104" width="180" height="26" as="geometry" />
        </mxCell>
        <mxCell id="G9mwLR_gxz6Jy6iitqx3-206" value="joinMenu: JFrame" style="text;align=left;verticalAlign=top;spacingLeft=4;spacingRight=4;overflow=hidden;rotatable=0;points=[[0,0.5],[1,0.5]];portConstraint=eastwest;" vertex="1" parent="G9mwLR_gxz6Jy6iitqx3-201">
          <mxGeometry y="130" width="180" height="26" as="geometry" />
        </mxCell>
        <mxCell id="G9mwLR_gxz6Jy6iitqx3-207" value="" style="line;html=1;strokeWidth=1;align=left;verticalAlign=middle;spacingTop=-1;spacingLeft=3;spacingRight=3;rotatable=0;labelPosition=right;points=[];portConstraint=eastwest;" vertex="1" parent="G9mwLR_gxz6Jy6iitqx3-201">
          <mxGeometry y="156" width="180" height="8" as="geometry" />
        </mxCell>
        <mxCell id="G9mwLR_gxz6Jy6iitqx3-208" style="edgeStyle=orthogonalEdgeStyle;rounded=0;orthogonalLoop=1;jettySize=auto;html=1;exitX=0.75;exitY=0;exitDx=0;exitDy=0;" edge="1" parent="1" source="G9mwLR_gxz6Jy6iitqx3-209">
          <mxGeometry relative="1" as="geometry">
            <mxPoint x="2590" y="1270" as="targetPoint" />
            <Array as="points">
              <mxPoint x="2295" y="1300" />
              <mxPoint x="2590" y="1300" />
            </Array>
          </mxGeometry>
        </mxCell>
        <mxCell id="G9mwLR_gxz6Jy6iitqx3-209" value="HostState" style="swimlane;fontStyle=3;align=center;verticalAlign=top;childLayout=stackLayout;horizontal=1;startSize=26;horizontalStack=0;resizeParent=1;resizeLast=0;collapsible=1;marginBottom=0;rounded=0;shadow=0;strokeWidth=1;" vertex="1" parent="1">
          <mxGeometry x="2160" y="1396" width="180" height="216" as="geometry">
            <mxRectangle x="230" y="140" width="160" height="26" as="alternateBounds" />
          </mxGeometry>
        </mxCell>
        <mxCell id="G9mwLR_gxz6Jy6iitqx3-210" value="mapSelection: JRadioButton" style="text;align=left;verticalAlign=top;spacingLeft=4;spacingRight=4;overflow=hidden;rotatable=0;points=[[0,0.5],[1,0.5]];portConstraint=eastwest;" vertex="1" parent="G9mwLR_gxz6Jy6iitqx3-209">
          <mxGeometry y="26" width="180" height="26" as="geometry" />
        </mxCell>
        <mxCell id="G9mwLR_gxz6Jy6iitqx3-211" value="buttonStart: JButton" style="text;align=left;verticalAlign=top;spacingLeft=4;spacingRight=4;overflow=hidden;rotatable=0;points=[[0,0.5],[1,0.5]];portConstraint=eastwest;" vertex="1" parent="G9mwLR_gxz6Jy6iitqx3-209">
          <mxGeometry y="52" width="180" height="26" as="geometry" />
        </mxCell>
        <mxCell id="G9mwLR_gxz6Jy6iitqx3-212" value="buttonBackToMain: JButton" style="text;align=left;verticalAlign=top;spacingLeft=4;spacingRight=4;overflow=hidden;rotatable=0;points=[[0,0.5],[1,0.5]];portConstraint=eastwest;" vertex="1" parent="G9mwLR_gxz6Jy6iitqx3-209">
          <mxGeometry y="78" width="180" height="26" as="geometry" />
        </mxCell>
        <mxCell id="G9mwLR_gxz6Jy6iitqx3-213" value="matchDuration: JSlider" style="text;align=left;verticalAlign=top;spacingLeft=4;spacingRight=4;overflow=hidden;rotatable=0;points=[[0,0.5],[1,0.5]];portConstraint=eastwest;" vertex="1" parent="G9mwLR_gxz6Jy6iitqx3-209">
          <mxGeometry y="104" width="180" height="26" as="geometry" />
        </mxCell>
        <mxCell id="G9mwLR_gxz6Jy6iitqx3-214" value="serverPassword: JTextField" style="text;align=left;verticalAlign=top;spacingLeft=4;spacingRight=4;overflow=hidden;rotatable=0;points=[[0,0.5],[1,0.5]];portConstraint=eastwest;" vertex="1" parent="G9mwLR_gxz6Jy6iitqx3-209">
          <mxGeometry y="130" width="180" height="26" as="geometry" />
        </mxCell>
        <mxCell id="G9mwLR_gxz6Jy6iitqx3-215" value="" style="line;html=1;strokeWidth=1;align=left;verticalAlign=middle;spacingTop=-1;spacingLeft=3;spacingRight=3;rotatable=0;labelPosition=right;points=[];portConstraint=eastwest;" vertex="1" parent="G9mwLR_gxz6Jy6iitqx3-209">
          <mxGeometry y="156" width="180" height="8" as="geometry" />
        </mxCell>
        <mxCell id="G9mwLR_gxz6Jy6iitqx3-216" style="edgeStyle=orthogonalEdgeStyle;rounded=0;orthogonalLoop=1;jettySize=auto;html=1;exitX=0.75;exitY=0;exitDx=0;exitDy=0;" edge="1" parent="1" source="G9mwLR_gxz6Jy6iitqx3-217">
          <mxGeometry relative="1" as="geometry">
            <mxPoint x="2630" y="1270" as="targetPoint" />
            <Array as="points">
              <mxPoint x="2050" y="1396" />
              <mxPoint x="2050" y="1320" />
              <mxPoint x="2630" y="1320" />
            </Array>
          </mxGeometry>
        </mxCell>
        <mxCell id="G9mwLR_gxz6Jy6iitqx3-217" value="SettingsState" style="swimlane;fontStyle=3;align=center;verticalAlign=top;childLayout=stackLayout;horizontal=1;startSize=26;horizontalStack=0;resizeParent=1;resizeLast=0;collapsible=1;marginBottom=0;rounded=0;shadow=0;strokeWidth=1;" vertex="1" parent="1">
          <mxGeometry x="1960" y="1396" width="180" height="190" as="geometry">
            <mxRectangle x="230" y="140" width="160" height="26" as="alternateBounds" />
          </mxGeometry>
        </mxCell>
        <mxCell id="G9mwLR_gxz6Jy6iitqx3-218" value="buttonBackToMain: JButton" style="text;align=left;verticalAlign=top;spacingLeft=4;spacingRight=4;overflow=hidden;rotatable=0;points=[[0,0.5],[1,0.5]];portConstraint=eastwest;" vertex="1" parent="G9mwLR_gxz6Jy6iitqx3-217">
          <mxGeometry y="26" width="180" height="26" as="geometry" />
        </mxCell>
        <mxCell id="G9mwLR_gxz6Jy6iitqx3-219" value="characterSelection: JRadioButton" style="text;align=left;verticalAlign=top;spacingLeft=4;spacingRight=4;overflow=hidden;rotatable=0;points=[[0,0.5],[1,0.5]];portConstraint=eastwest;" vertex="1" parent="G9mwLR_gxz6Jy6iitqx3-217">
          <mxGeometry y="52" width="180" height="26" as="geometry" />
        </mxCell>
        <mxCell id="G9mwLR_gxz6Jy6iitqx3-220" value="playerName: JTextField" style="text;align=left;verticalAlign=top;spacingLeft=4;spacingRight=4;overflow=hidden;rotatable=0;points=[[0,0.5],[1,0.5]];portConstraint=eastwest;" vertex="1" parent="G9mwLR_gxz6Jy6iitqx3-217">
          <mxGeometry y="78" width="180" height="26" as="geometry" />
        </mxCell>
        <mxCell id="G9mwLR_gxz6Jy6iitqx3-221" value="settingsMenu: JFrame" style="text;align=left;verticalAlign=top;spacingLeft=4;spacingRight=4;overflow=hidden;rotatable=0;points=[[0,0.5],[1,0.5]];portConstraint=eastwest;" vertex="1" parent="G9mwLR_gxz6Jy6iitqx3-217">
          <mxGeometry y="104" width="180" height="26" as="geometry" />
        </mxCell>
        <mxCell id="G9mwLR_gxz6Jy6iitqx3-222" value="" style="line;html=1;strokeWidth=1;align=left;verticalAlign=middle;spacingTop=-1;spacingLeft=3;spacingRight=3;rotatable=0;labelPosition=right;points=[];portConstraint=eastwest;" vertex="1" parent="G9mwLR_gxz6Jy6iitqx3-217">
          <mxGeometry y="130" width="180" height="8" as="geometry" />
        </mxCell>
        <mxCell id="G9mwLR_gxz6Jy6iitqx3-223" value="– Az egymáshoz tartozó classok azonos packageban:&#xa;com.duelingfates.GameState&#xa;com.duelingfates.GameObjects&#xa;com.duelingfates.TileMap etc.&#xa;&#xa;– A Sources források külön mappában, &quot;Mark as Sources&quot; és akkor nem kell mindig külön &#xa;hivatkozni a &quot;path&quot;-ra, mert azt is buildelni fogja a compiler.&#xa;&#xa;Amit írunk ott rajzolunk.&#xa;&#xa;– Kell egy Game Class ami létrehozza a Framet, setContentPane new(GamePanel())&#xa;– GamePanel-ben szál létrehozás és futtatása, inicializáció, draw, update drawToScreen&#xa;–GameStateManager tömbben a lehetséges állapotok és az állapotok között váltást ez bonyolítja le.&#xa;(ebben is van update, draw)&#xa;– GameState egy abstract class amiben van egy protected GameStateManager objektum&#xa;–MenuState: A GameState-ből származik extends-el.&#xa;menu opciók kilistázása, Ha exit akkor System.exit(0). Settings esetében meg akkor &#xa;(itt a kérdés, hogy az egyes menü opciókat szétbontsuk-e)&#xa;&#xa;– GamePlayState: A GameState-ből származik extends-el.&#xa;&#xa;TileMap package:&#xa;minden ami pálya : tile-ok beolvasása, elhelyezése&#xa;&#xa;GameObject class: collision detection, karakter irányítása, animáció használata,&#xa;Külön Animáció class,&#xa;külön Játékos Class&#xa;Weapon classban kell a lövést is megvalósítani.&#xa;&#xa;Kell Handler? mert jól hangzik, csak egyszerűbb minden playerrel kapcsolatos cuccot a playerben&#xa;megoldani. Tény hogy az objektumorientáltság miatt jobb, de szerintem ez így sem egyszerű, &#xa;majd a 2. már olyan lesz :D" style="text;strokeColor=#b85450;fillColor=#f8cecc;align=left;verticalAlign=top;spacingLeft=4;spacingRight=4;overflow=hidden;rotatable=0;points=[[0,0.5],[1,0.5]];portConstraint=eastwest;fontStyle=1;fontSize=20;" vertex="1" parent="1">
          <mxGeometry x="1200" y="120" width="980" height="820" as="geometry" />
        </mxCell>
        <mxCell id="G9mwLR_gxz6Jy6iitqx3-224" value="GamePanel" style="swimlane;fontStyle=3;align=center;verticalAlign=top;childLayout=stackLayout;horizontal=1;startSize=26;horizontalStack=0;resizeParent=1;resizeLast=0;collapsible=1;marginBottom=0;rounded=0;shadow=0;strokeWidth=1;" vertex="1" parent="1">
          <mxGeometry x="2260" y="1079" width="200" height="112" as="geometry">
            <mxRectangle x="230" y="140" width="160" height="26" as="alternateBounds" />
          </mxGeometry>
        </mxCell>
        <mxCell id="G9mwLR_gxz6Jy6iitqx3-225" value="Thread, Draw, update, render" style="text;align=left;verticalAlign=top;spacingLeft=4;spacingRight=4;overflow=hidden;rotatable=0;points=[[0,0.5],[1,0.5]];portConstraint=eastwest;rounded=0;shadow=0;html=0;" vertex="1" parent="G9mwLR_gxz6Jy6iitqx3-224">
          <mxGeometry y="26" width="200" height="26" as="geometry" />
        </mxCell>
        <mxCell id="G9mwLR_gxz6Jy6iitqx3-226" value="" style="line;html=1;strokeWidth=1;align=left;verticalAlign=middle;spacingTop=-1;spacingLeft=3;spacingRight=3;rotatable=0;labelPosition=right;points=[];portConstraint=eastwest;" vertex="1" parent="G9mwLR_gxz6Jy6iitqx3-224">
          <mxGeometry y="52" width="200" height="8" as="geometry" />
        </mxCell>
        <mxCell id="G9mwLR_gxz6Jy6iitqx3-227" value="gamestatemanager fgv-ét hívja meg" style="text;align=left;verticalAlign=top;spacingLeft=4;spacingRight=4;overflow=hidden;rotatable=0;points=[[0,0.5],[1,0.5]];portConstraint=eastwest;rounded=0;shadow=0;html=0;" vertex="1" parent="G9mwLR_gxz6Jy6iitqx3-224">
          <mxGeometry y="60" width="200" height="26" as="geometry" />
        </mxCell>
        <mxCell id="G9mwLR_gxz6Jy6iitqx3-228" value="" style="endArrow=block;dashed=1;endFill=0;endSize=12;html=1;" edge="1" parent="1">
          <mxGeometry width="160" relative="1" as="geometry">
            <mxPoint x="2170" y="1134.58" as="sourcePoint" />
            <mxPoint x="2260" y="1134.29" as="targetPoint" />
          </mxGeometry>
        </mxCell>
        <mxCell id="G9mwLR_gxz6Jy6iitqx3-229" value="GameStateManager" style="swimlane;fontStyle=3;align=center;verticalAlign=top;childLayout=stackLayout;horizontal=1;startSize=26;horizontalStack=0;resizeParent=1;resizeLast=0;collapsible=1;marginBottom=0;rounded=0;shadow=0;strokeWidth=1;" vertex="1" parent="1">
          <mxGeometry x="2890" y="1010" width="200" height="112" as="geometry">
            <mxRectangle x="230" y="140" width="160" height="26" as="alternateBounds" />
          </mxGeometry>
        </mxCell>
        <mxCell id="G9mwLR_gxz6Jy6iitqx3-230" value="gamestates" style="text;align=left;verticalAlign=top;spacingLeft=4;spacingRight=4;overflow=hidden;rotatable=0;points=[[0,0.5],[1,0.5]];portConstraint=eastwest;rounded=0;shadow=0;html=0;" vertex="1" parent="G9mwLR_gxz6Jy6iitqx3-229">
          <mxGeometry y="26" width="200" height="26" as="geometry" />
        </mxCell>
        <mxCell id="G9mwLR_gxz6Jy6iitqx3-231" value="" style="line;html=1;strokeWidth=1;align=left;verticalAlign=middle;spacingTop=-1;spacingLeft=3;spacingRight=3;rotatable=0;labelPosition=right;points=[];portConstraint=eastwest;" vertex="1" parent="G9mwLR_gxz6Jy6iitqx3-229">
          <mxGeometry y="52" width="200" height="8" as="geometry" />
        </mxCell>
        <mxCell id="G9mwLR_gxz6Jy6iitqx3-232" value="fgv kezelés" style="text;align=left;verticalAlign=top;spacingLeft=4;spacingRight=4;overflow=hidden;rotatable=0;points=[[0,0.5],[1,0.5]];portConstraint=eastwest;rounded=0;shadow=0;html=0;" vertex="1" parent="G9mwLR_gxz6Jy6iitqx3-229">
          <mxGeometry y="60" width="200" height="26" as="geometry" />
        </mxCell>
        <mxCell id="G9mwLR_gxz6Jy6iitqx3-233" value="GameplayState" style="swimlane;fontStyle=3;align=center;verticalAlign=top;childLayout=stackLayout;horizontal=1;startSize=26;horizontalStack=0;resizeParent=1;resizeLast=0;collapsible=1;marginBottom=0;rounded=0;shadow=0;strokeWidth=1;" vertex="1" parent="1">
          <mxGeometry x="2627.5" y="202" width="200" height="464" as="geometry">
            <mxRectangle x="230" y="140" width="160" height="26" as="alternateBounds" />
          </mxGeometry>
        </mxCell>
        <mxCell id="G9mwLR_gxz6Jy6iitqx3-234" value="gameLayout: Map" style="text;align=left;verticalAlign=top;spacingLeft=4;spacingRight=4;overflow=hidden;rotatable=0;points=[[0,0.5],[1,0.5]];portConstraint=eastwest;rounded=0;shadow=0;html=0;fillColor=#008a00;strokeColor=#005700;fontColor=#ffffff;" vertex="1" parent="G9mwLR_gxz6Jy6iitqx3-233">
          <mxGeometry y="26" width="200" height="26" as="geometry" />
        </mxCell>
        <mxCell id="G9mwLR_gxz6Jy6iitqx3-235" value="playerNameUI: JTextField " style="text;align=left;verticalAlign=top;spacingLeft=4;spacingRight=4;overflow=hidden;rotatable=0;points=[[0,0.5],[1,0.5]];portConstraint=eastwest;rounded=0;shadow=0;html=0;" vertex="1" parent="G9mwLR_gxz6Jy6iitqx3-233">
          <mxGeometry y="52" width="200" height="26" as="geometry" />
        </mxCell>
        <mxCell id="G9mwLR_gxz6Jy6iitqx3-236" value="playerScoreUI: JTextField " style="text;align=left;verticalAlign=top;spacingLeft=4;spacingRight=4;overflow=hidden;rotatable=0;points=[[0,0.5],[1,0.5]];portConstraint=eastwest;rounded=0;shadow=0;html=0;" vertex="1" parent="G9mwLR_gxz6Jy6iitqx3-233">
          <mxGeometry y="78" width="200" height="26" as="geometry" />
        </mxCell>
        <mxCell id="G9mwLR_gxz6Jy6iitqx3-237" value="playerHealthBarUI: JProgressBar " style="text;align=left;verticalAlign=top;spacingLeft=4;spacingRight=4;overflow=hidden;rotatable=0;points=[[0,0.5],[1,0.5]];portConstraint=eastwest;rounded=0;shadow=0;html=0;" vertex="1" parent="G9mwLR_gxz6Jy6iitqx3-233">
          <mxGeometry y="104" width="200" height="26" as="geometry" />
        </mxCell>
        <mxCell id="G9mwLR_gxz6Jy6iitqx3-238" value="playerAmmoUI: JTextField " style="text;align=left;verticalAlign=top;spacingLeft=4;spacingRight=4;overflow=hidden;rotatable=0;points=[[0,0.5],[1,0.5]];portConstraint=eastwest;rounded=0;shadow=0;html=0;" vertex="1" parent="G9mwLR_gxz6Jy6iitqx3-233">
          <mxGeometry y="130" width="200" height="26" as="geometry" />
        </mxCell>
        <mxCell id="G9mwLR_gxz6Jy6iitqx3-239" value="enemyNameUI: JTextField " style="text;align=left;verticalAlign=top;spacingLeft=4;spacingRight=4;overflow=hidden;rotatable=0;points=[[0,0.5],[1,0.5]];portConstraint=eastwest;rounded=0;shadow=0;html=0;" vertex="1" parent="G9mwLR_gxz6Jy6iitqx3-233">
          <mxGeometry y="156" width="200" height="26" as="geometry" />
        </mxCell>
        <mxCell id="G9mwLR_gxz6Jy6iitqx3-240" value="enemyScoreUI: JTextField " style="text;align=left;verticalAlign=top;spacingLeft=4;spacingRight=4;overflow=hidden;rotatable=0;points=[[0,0.5],[1,0.5]];portConstraint=eastwest;rounded=0;shadow=0;html=0;" vertex="1" parent="G9mwLR_gxz6Jy6iitqx3-233">
          <mxGeometry y="182" width="200" height="26" as="geometry" />
        </mxCell>
        <mxCell id="G9mwLR_gxz6Jy6iitqx3-241" value="enemyHealthBarUI: JProgressBar " style="text;align=left;verticalAlign=top;spacingLeft=4;spacingRight=4;overflow=hidden;rotatable=0;points=[[0,0.5],[1,0.5]];portConstraint=eastwest;rounded=0;shadow=0;html=0;" vertex="1" parent="G9mwLR_gxz6Jy6iitqx3-233">
          <mxGeometry y="208" width="200" height="26" as="geometry" />
        </mxCell>
        <mxCell id="G9mwLR_gxz6Jy6iitqx3-242" value="screenWidthX: int&#xa;" style="text;align=left;verticalAlign=top;spacingLeft=4;spacingRight=4;overflow=hidden;rotatable=0;points=[[0,0.5],[1,0.5]];portConstraint=eastwest;rounded=0;shadow=0;html=0;" vertex="1" parent="G9mwLR_gxz6Jy6iitqx3-233">
          <mxGeometry y="234" width="200" height="26" as="geometry" />
        </mxCell>
        <mxCell id="G9mwLR_gxz6Jy6iitqx3-243" value="screenWidthY: int&#xa;" style="text;align=left;verticalAlign=top;spacingLeft=4;spacingRight=4;overflow=hidden;rotatable=0;points=[[0,0.5],[1,0.5]];portConstraint=eastwest;rounded=0;shadow=0;html=0;" vertex="1" parent="G9mwLR_gxz6Jy6iitqx3-233">
          <mxGeometry y="260" width="200" height="26" as="geometry" />
        </mxCell>
        <mxCell id="G9mwLR_gxz6Jy6iitqx3-244" value="renderer: GameRenderer&#xa;" style="text;align=left;verticalAlign=top;spacingLeft=4;spacingRight=4;overflow=hidden;rotatable=0;points=[[0,0.5],[1,0.5]];portConstraint=eastwest;rounded=0;shadow=0;html=0;" vertex="1" parent="G9mwLR_gxz6Jy6iitqx3-233">
          <mxGeometry y="286" width="200" height="26" as="geometry" />
        </mxCell>
        <mxCell id="G9mwLR_gxz6Jy6iitqx3-245" value="deltaTime: float&#xa;" style="text;align=left;verticalAlign=top;spacingLeft=4;spacingRight=4;overflow=hidden;rotatable=0;points=[[0,0.5],[1,0.5]];portConstraint=eastwest;rounded=0;shadow=0;html=0;" vertex="1" parent="G9mwLR_gxz6Jy6iitqx3-233">
          <mxGeometry y="312" width="200" height="26" as="geometry" />
        </mxCell>
        <mxCell id="G9mwLR_gxz6Jy6iitqx3-246" value="ESC_Menu: PauseMenu" style="text;align=left;verticalAlign=top;spacingLeft=4;spacingRight=4;overflow=hidden;rotatable=0;points=[[0,0.5],[1,0.5]];portConstraint=eastwest;rounded=0;shadow=0;html=0;fillColor=#e1d5e7;strokeColor=#9673a6;" vertex="1" parent="G9mwLR_gxz6Jy6iitqx3-233">
          <mxGeometry y="338" width="200" height="26" as="geometry" />
        </mxCell>
        <mxCell id="G9mwLR_gxz6Jy6iitqx3-247" value="" style="line;html=1;strokeWidth=1;align=left;verticalAlign=middle;spacingTop=-1;spacingLeft=3;spacingRight=3;rotatable=0;labelPosition=right;points=[];portConstraint=eastwest;" vertex="1" parent="G9mwLR_gxz6Jy6iitqx3-233">
          <mxGeometry y="364" width="200" height="8" as="geometry" />
        </mxCell>
        <mxCell id="G9mwLR_gxz6Jy6iitqx3-248" value="GameObjects.... handled by &#xa;GameObjectHandler" style="text;align=left;verticalAlign=top;spacingLeft=4;spacingRight=4;overflow=hidden;rotatable=0;points=[[0,0.5],[1,0.5]];portConstraint=eastwest;rounded=0;shadow=0;html=0;fontStyle=1" vertex="1" parent="G9mwLR_gxz6Jy6iitqx3-233">
          <mxGeometry y="372" width="200" height="46" as="geometry" />
        </mxCell>
        <mxCell id="G9mwLR_gxz6Jy6iitqx3-249" value="" style="line;html=1;strokeWidth=1;align=left;verticalAlign=middle;spacingTop=-1;spacingLeft=3;spacingRight=3;rotatable=0;labelPosition=right;points=[];portConstraint=eastwest;" vertex="1" parent="G9mwLR_gxz6Jy6iitqx3-233">
          <mxGeometry y="418" width="200" height="10" as="geometry" />
        </mxCell>
        <mxCell id="G9mwLR_gxz6Jy6iitqx3-250" value="quitToMenu(): void" style="text;align=left;verticalAlign=top;spacingLeft=4;spacingRight=4;overflow=hidden;rotatable=0;points=[[0,0.5],[1,0.5]];portConstraint=eastwest;rounded=0;shadow=0;html=0;" vertex="1" parent="G9mwLR_gxz6Jy6iitqx3-233">
          <mxGeometry y="428" width="200" height="26" as="geometry" />
        </mxCell>
        <mxCell id="G9mwLR_gxz6Jy6iitqx3-251" value="" style="endArrow=block;dashed=1;endFill=0;endSize=12;html=1;entryX=1;entryY=0;entryDx=0;entryDy=0;exitX=0;exitY=0.5;exitDx=0;exitDy=0;" edge="1" parent="1" source="G9mwLR_gxz6Jy6iitqx3-230" target="G9mwLR_gxz6Jy6iitqx3-189">
          <mxGeometry width="160" relative="1" as="geometry">
            <mxPoint x="2760" y="1150.29" as="sourcePoint" />
            <mxPoint x="2850" y="1150" as="targetPoint" />
          </mxGeometry>
        </mxCell>
        <mxCell id="G9mwLR_gxz6Jy6iitqx3-252" value="HUD" style="swimlane;fontStyle=3;align=center;verticalAlign=top;childLayout=stackLayout;horizontal=1;startSize=26;horizontalStack=0;resizeParent=1;resizeLast=0;collapsible=1;marginBottom=0;rounded=0;shadow=0;strokeWidth=1;" vertex="1" parent="1">
          <mxGeometry x="1630" y="1580" width="202" height="78" as="geometry">
            <mxRectangle x="230" y="140" width="160" height="26" as="alternateBounds" />
          </mxGeometry>
        </mxCell>
      </root>
    </mxGraphModel>
  </diagram>
</mxfile>
